<?xml version="1.0" encoding="UTF-8"?>
<svg id="Layer_2" data-name="Layer 2" xmlns="http://www.w3.org/2000/svg" xmlns:xlink="http://www.w3.org/1999/xlink" viewBox="0 0 1080 1080">
  <defs>
    <style>
      .cls-1 {
        fill: none;
      }

      .cls-2 {
        fill: #bf0b1a;
      }

      .cls-3 {
        clip-path: url(#clippath);
      }
    </style>
    <clipPath id="clippath">
      <rect class="cls-1" width="1080" height="1080"/>
    </clipPath>
  </defs>
  <g id="Layer_1-2" data-name="Layer 1">
    <g class="cls-3">
      <g id="Layer_1-3" data-name="Layer 1">
        <g id="Fish">
          <path class="cls-2" d="M1033.43,534.83l44.22-189.66c10.08-43.32-38.53-76.56-75.26-51.51l-149.13,102.51c16.77,15.77,32.34,32.84,46.62,50.81,41.33,51.21,41.33,124.38,0,175.58-14.27,17.97-29.95,35.04-46.62,50.81l149.13,102.51c36.73,25.05,85.35-8.19,75.26-51.51l-44.22-189.66h0v.1Z"/>
          <path class="cls-2" d="M351.27,839.98c71.27,98.32,208.72,120.28,307.04,49.01,44.52-32.24,75.26-79.96,86.34-133.76-96.63,56.3-211.82,87.54-331.8,87.54s-41.33-.9-61.59-2.89h0v.1Z"/>
          <path class="cls-2" d="M744.65,314.33c-24.46-118.88-140.75-195.45-259.63-170.99-53.8,11.08-101.52,41.92-133.76,86.34,20.26-2,40.93-2.89,61.59-2.89,119.88,0,235.17,31.24,331.8,87.54h0Z"/>
          <path class="cls-2" d="M848.47,488.22c-94.33-117.79-254.14-195.45-435.71-195.45-167,0-315.53,65.78-411.76,168l85.65,73.97L1,608.9c96.13,102.22,244.66,168,411.76,168s341.38-77.66,435.71-195.45c21.86-27.15,21.86-65.98,0-93.13h0v-.1ZM221,512.87c-24.36,0-44.02-19.66-44.02-44.02s19.66-44.02,44.02-44.02,44.02,19.66,44.02,44.02h0c0,24.26-19.66,44.02-44.02,44.02h0ZM383.01,652.32c-10.28,15.07-30.84,18.97-45.92,8.68-14.97-10.28-18.97-30.64-8.78-45.72,32.04-48.91,32.04-112.1,0-160.91-10.18-15.07-6.29-35.64,8.78-45.82,15.07-10.18,35.64-6.29,45.82,8.78h0c47.21,71.27,47.21,163.8,0,235.07h0l.1-.1Z"/>
        </g>
      </g>
    </g>
  </g>
</svg>