<?xml version="1.0" encoding="UTF-8"?>
<svg id="Layer_2" data-name="Layer 2" xmlns="http://www.w3.org/2000/svg" viewBox="0 0 1080 1080">
  <defs>
    <style>
      .cls-1 {
        fill: #022873;
      }
    </style>
  </defs>
  <g id="Layer_1-2" data-name="Layer 1">
    <path class="cls-1" d="M540,0C241.77,0,0,241.77,0,540s241.77,540,540,540,540-241.77,540-540S838.23,0,540,0ZM789.63,399.55c-5.89,76.84-46.66,225.31-74.28,298.96-13.76,36.7-42.24,76.8-44.93,114.32-1.4,19.48,9.6,54.35-18.45,53.72-62.62-4.53-132.63,5.61-194.33,0-27.47-2.5-16.44-20.86-18.58-41.14-2.12-20.14-6.53-34.74-18.83-50.84-51.47-67.36-120.11-118.76-181.5-176.82-19.67-23.67-4.11-59.21,27.02-58.89,12.52.13,38.26,10.83,50.62,16.09,18.29,7.78,48.3,29.71,62.9,34.13,7.2,2.18,15.37,1.94,21.94-1.94,7.88-13.86,5.67-24.35,1.28-38.68-17.74-57.92-80.25-172.99-72.2-230.08,4.57-32.42,36.67-46.94,56.16-17.64,13.75,20.67,29.81,69.55,39.61,94.77,7.78,20.01,16.67,57.12,26.07,73.46,10.23,17.76,22.74-.89,23.44-14.73,3.12-61.95-9.3-140.47-1.4-200.97,1.06-8.1,7.25-23.54,12.62-29.68,19.4-22.14,58.88-11.63,63.71,17.63,5.44,32.94,4.31,79.21,5.68,113.76,1.25,31.6-1.82,68.69,2.26,99.77,2.07,15.81,20.53,19.62,26.29,3.64,17.62-60.07,17.58-132.83,34.76-191.68,5.91-20.25,17.48-34,39.96-32.44,37.15,2.58,28.25,52.8,26,78.49-5.02,57.34-15.87,114.61-22.03,171.85.45,14.2,20.43,19.25,28.13,8.43,5.58-7.84,17.14-44.02,21.35-55.8,8.01-22.44,19.91-87.47,46.21-90.83,29.6-3.78,32.17,32.06,30.56,53.14Z"/>
  </g>
</svg>