<?xml version="1.0" encoding="UTF-8"?>
<svg id="Layer_2" data-name="Layer 2" xmlns="http://www.w3.org/2000/svg" viewBox="0 0 1080 1080">
  <defs>
    <style>
      .cls-1 {
        fill: #022873;
      }
    </style>
  </defs>
  <g id="Layer_1-2" data-name="Layer 1">
    <g>
      <path class="cls-1" d="M664.64,569.69c14.56,1.71,58.34,5.08,60.73-13,1.06-8.02.73-58.16-2.28-62.09-5.76-7.54-53-7.37-62.65-5.21-18.5,4.13-15.42,47.1-13.62,62.48,1.29,11.04,6.91,16.53,17.81,17.81Z"/>
      <path class="cls-1" d="M563.7,665.88c-4.48-1.97-56.92-2.43-62.42-.78-2.76.83-4.75,3.36-6.11,5.76-4.41,7.77-4.67,60.76.98,67.33,5.98,6.95,61.77,6.9,68.94,2.6,1.34-.8,3.94-3.56,4.55-4.95,2.16-4.9,2.37-50.6,1.37-58.26-.61-4.65-2.73-9.68-7.3-11.7Z"/>
      <path class="cls-1" d="M652.64,666.84c-8.01,5.67-7.07,50.09-5.81,60.78.77,6.58,2.61,12.15,9.41,14.35,6.88,2.22,47.48,2.27,56.08,1.17,7.9-1.01,12.04-5.08,13.06-13.06,1.08-8.44.88-58.56-3.06-62.5-4.45-4.45-64.32-4.54-69.68-.74Z"/>
      <path class="cls-1" d="M553.06,569.63c9.39-1.04,16.54-2.64,17.92-12.95,1.47-11.01,1.04-38.55,0-50.1-.4-4.48-.31-9.4-3.71-12.92-6.14-6.36-51.84-6.39-61.22-4.29-5.45,1.22-12.45,7.01-13.5,12.62-1.52,8.08-1.33,43.58-.18,52.31,2.71,20.56,44.49,17.11,60.68,15.32Z"/>
      <path class="cls-1" d="M540,0C241.77,0,0,241.77,0,540s241.77,540,540,540,540-241.77,540-540S838.23,0,540,0ZM228.86,297.69c0-.94,4.93-15.6,5.93-17.82,5.6-12.49,23.75-30.87,38.01-30.87h65.31v65.31c0,6.58,13.46,13.4,20.04,12.98,5.12-.33,17.96-8.41,17.96-12.98v-65.31h308.76v60.56c0,22.39,40.38,22.39,40.38,0v-60.56h62.94c17.01,0,43.8,18.34,52.6,32.91,1.54,2.55,7.97,16.76,7.97,18.16v77.19H228.86v-79.57ZM851.14,775.08c0,29.33-39.91,56.78-67.6,55.9l-503.58-.11c-17.51-2.1-32.88-8.72-42.08-24.42-2.01-3.43-9.01-21.59-9.01-24.24v-364.57h622.27v357.45Z"/>
      <path class="cls-1" d="M398.68,569.63c11.98-1.34,18.76-4.93,20.24-17.76,1.02-8.86,1.11-49.11-2.27-54.84-6.67-11.29-50.3-9.82-62.52-7.58-8.21,1.5-12.14,4.11-13.48,12.65-1.26,8.01-1.16,57.67,2,61.81,5.81,7.6,45.69,6.88,56.03,5.72Z"/>
      <path class="cls-1" d="M401.11,743.07c12.91-1.5,16.78-8.14,17.87-20.13,1.34-14.67,5.1-56.02-13.06-58.42-7.84-1.04-50.44-1.15-56.62.62-2.09.6-5.49,3.45-6.59,5.29-3.18,5.32-3.51,51-2.35,59.64,2.43,18.04,45.79,14.73,60.73,13Z"/>
    </g>
  </g>
</svg>