<?xml version="1.0" encoding="UTF-8"?>
<svg id="Layer_1" data-name="Layer 1" xmlns="http://www.w3.org/2000/svg" viewBox="0 0 1061.06 1080">
  <defs>
    <style>
      .cls-1 {
        fill: #000;
        stroke-width: 0px;
      }
    </style>
  </defs>
  <path class="cls-1" d="M909.52,1063.8c0-5.93-3.25-11.38-8.46-14.21-64.12-34.46-122.59-87.21-148.32-113.69-7.88-8.27-20.53-9.77-30.13-3.58-119.21,76.79-264.35,76.83-383.58.12-9.69-6.26-22.46-4.7-30.36,3.69-25.51,26.72-83.35,78.87-147.87,113.1-5.22,2.62-8.7,7.76-9.21,13.57-.69,8.78,5.86,16.45,14.64,17.15,1.38.11,2.76.04,4.12-.21,49.38-9.9,97.11-32.4,142.59-56.44,5.92-3.12,12.98-3.17,18.95-.14,124.88,63.49,272.58,63.49,397.46,0,6.03-3.06,13.17-3,19.16.14,45.24,23.69,92.89,46.4,142.11,56.37,8.65,1.66,17-4,18.66-12.64.21-1.07.3-2.16.28-3.25l-.05.02Z"/>
  <path class="cls-1" d="M1053.31,527.97h0c-8.27-19.87-25.82-35.27-49.5-43.46l-56.39-22.45v-196.78c0-83.72-67.87-151.59-151.59-151.59h-75.79v-18.95c0-52.32-42.42-94.74-94.74-94.74h-189.48c-52.32,0-94.74,42.42-94.74,94.74v18.95h-75.79c-83.72,0-151.59,67.87-151.59,151.59v196.94l-55.85,22.24c-23.54,7.82-41.76,23.69-50.09,43.68-5.8,13.95-12.43,35.53-3.08,62.67l.24.71,110.52,282.9c8.33,21.28,28.9,35.23,51.75,35.1,1.18,0,2.37,0,3.62-.12,74.18-4.74,132.64-40.9,171.95-74.87,56.16,48.48,122.22,74.99,187.8,74.99s131.29-26.53,187.45-75.08c39.29,34.01,97.82,70.27,171.98,74.96,24.09,1.69,46.5-12.44,55.35-34.91l110.49-281.85c7.77-19.16,6.87-42.06-2.51-64.66ZM561.35,308.41l-2.7-.95c-18.29-5.76-37.91-5.76-56.21,0l-1.37.43-298.6,118.97c-4.86,1.94-10.37-.44-12.31-5.3-.45-1.12-.67-2.31-.67-3.51v-152.77c0-41.86,33.93-75.79,75.79-75.79h530.55c41.86,0,75.79,33.93,75.79,75.79v152.63c0,5.23-4.23,9.48-9.46,9.48-1.2,0-2.4-.23-3.51-.67l-297.3-118.31Z"/>
</svg>