<?xml version="1.0" encoding="UTF-8"?>
<svg id="Layer_1" data-name="Layer 1" xmlns="http://www.w3.org/2000/svg" viewBox="0 0 1080.58 1080">
  <defs>
    <style>
      .cls-1 {
        fill: #000;
        stroke-width: 0px;
      }
    </style>
  </defs>
  <path class="cls-1" d="M1058.06,674.6h-112.56v-56.28c0-6.22,5.04-11.26,11.26-11.26h78.79c12.43,0,22.51-10.09,22.5-22.52,0-3.91-1.02-7.76-2.96-11.16l-70.82-123.91h28.77c12.43-.02,22.5-10.11,22.48-22.54,0-4.19-1.18-8.3-3.39-11.86l-112.56-180.1c-7.44-10.54-22.02-13.06-32.57-5.61-2.18,1.54-4.08,3.44-5.61,5.61l-112.56,180.1c-6.56,10.56-3.33,24.44,7.23,31,3.56,2.21,7.67,3.39,11.86,3.39h28.77l-70.87,123.91c-6.17,10.8-2.41,24.55,8.38,30.71,3.41,1.95,7.27,2.97,11.2,2.96h78.79c6.22,0,11.26,5.04,11.26,11.26v66.77c-94.71,23.42-182.85,68.07-257.76,130.57-3.21,2.56-4.77,6.67-4.05,10.72.67,4.06,3.53,7.42,7.43,8.73,98.69,30.61,187.18,87.5,256.01,164.56,15.58,18.84,22.66,43.29,19.54,67.54-.43,3.26.59,6.55,2.79,9,2.13,2.42,5.2,3.8,8.42,3.78h170.24c12.43,0,22.51-10.08,22.51-22.51v-360.19c.1-12.43-9.9-22.59-22.33-22.69-.06,0-.12,0-.18,0Z"/>
  <path class="cls-1" d="M10,948.53C3.74,952.71,0,959.74,0,967.26v90.05c0,12.43,10.08,22.51,22.51,22.51h765.41c12.43,0,22.51-10.09,22.5-22.52,0-5.26-1.85-10.36-5.21-14.4-110.17-132.24-314.18-178.07-445.02-186.58v-102.92c0-6.22,5.04-11.26,11.26-11.26h148.13c24.87-.02,45.01-20.2,44.99-45.06,0-9.23-2.86-18.24-8.16-25.81l-108.06-154.25h28.32c24.87-.01,45.01-20.18,45-45.05,0-8.56-2.45-16.93-7.04-24.15l-114.59-180.1c23.93-6.74,37.87-31.61,31.13-55.54-1.08-3.83-2.66-7.5-4.7-10.91L311.97,10.18c-7.31-10.67-21.88-13.39-32.55-6.08-2.39,1.63-4.45,3.7-6.08,6.08l-114.63,191.04c-12.78,21.33-5.86,48.98,15.47,61.76,3.44,2.06,7.14,3.65,11,4.74l-114.59,180.1c-13.38,20.96-7.23,48.8,13.73,62.18,7.24,4.62,15.64,7.07,24.23,7.07h28.32l-108.06,154.25c-14.27,20.36-9.34,48.44,11.02,62.71,7.57,5.31,16.6,8.16,25.85,8.16h148.17c6.22,0,11.26,5.04,11.26,11.26v108.51c-77.27,12.46-150.77,42.05-215.12,86.58Z"/>
</svg>