<?xml version="1.0" encoding="UTF-8"?>
<svg id="Layer_2" data-name="Layer 2" xmlns="http://www.w3.org/2000/svg" viewBox="0 0 1080 1080">
  <defs>
    <style>
      .cls-1 {
        fill: #022873;
      }
    </style>
  </defs>
  <g id="Layer_1-2" data-name="Layer 1">
    <g>
      <path class="cls-1" d="M540,0C241.77,0,0,241.77,0,540s241.77,540,540,540,540-241.77,540-540S838.23,0,540,0ZM809.86,676.09c-73.79,103.9-212.36,145.98-334.96,118.93-11.76-2.6-44.35-15.32-52.31-14.53-6.68.67-43.19,19.82-54.43,24-28.94,10.78-83.93,27.93-113.81,29.46-3.52.18-8.86-.09-11.39-2.61-9.46-9.43,8.2-22.89,13.3-31.44,21.35-35.76,27.59-80.47,33.3-121.17-156.42-244.64,87.91-486.74,345.94-422.14,186.57,46.71,292.89,252.62,174.36,419.5Z"/>
      <path class="cls-1" d="M400.66,483.64c-53.02,5.8-45.08,86.19,8.27,82.26,53.12-3.92,47.25-88.33-8.27-82.26Z"/>
      <path class="cls-1" d="M525.24,492.08c-46.89,35.13,12.93,102.8,53.96,61.79,34.93-34.92-12.78-92.64-53.96-61.79Z"/>
      <path class="cls-1" d="M689.07,483.65c-51.06,5.58-45.01,86.17,8.26,82.26,54.01-3.97,48.46-88.45-8.26-82.26Z"/>
    </g>
  </g>
</svg>