<?xml version="1.0" encoding="UTF-8"?>
<svg id="Layer_2" data-name="Layer 2" xmlns="http://www.w3.org/2000/svg" viewBox="0 0 1080 1080">
  <defs>
    <style>
      .cls-1 {
        fill: #022873;
      }
    </style>
  </defs>
  <g id="Layer_1-2" data-name="Layer 1">
    <path class="cls-1" d="M540,0C241.77,0,0,241.77,0,540s241.77,540,540,540,540-241.77,540-540S838.23,0,540,0ZM345.14,803.15l-95.39-96.72c-9.99-24.2,25.31-42.38,38.63-58.87l120.19,118.31c-14.59,16.15-39.35,54.88-63.43,37.29ZM655.35,814.76c-14.48,14.96-30.19,34.42-45.25,48.22-10.94,10.03-24.9,19.54-37.81,6.43l-101.2-102.58,148.94-67.01c4.69.93,64.24,62.72,65.92,68.91,5.7,21.02-17.67,32.69-30.59,46.04ZM824.08,555.09l-382.94,180.5-120.61-120.61,180.5-382.94c2.61-3.42,6.66-6.58,10.9-7.44,9.75-1.98,18.53,3.5,25.42,9.86l285.6,285.61c9.36,11.05,14.03,24.32,1.13,35.01Z"/>
  </g>
</svg>