<?xml version="1.0" encoding="UTF-8"?>
<svg xmlns="http://www.w3.org/2000/svg" version="1.1" viewBox="0 0 1080 793.5">
  <defs>
    <style>
      .cls-1 {
        fill: #bf0b1a;
      }
    </style>
  </defs>
  <!-- Generator: Adobe Illustrator 28.6.0, SVG Export Plug-In . SVG Version: 1.2.0 Build 709)  -->
  <g>
    <g id="Layer_1">
      <g id="Fish">
        <path class="cls-1" d="M1034.3,396.8l44.3-190c10.1-43.4-38.6-76.7-75.4-51.6l-149.4,102.7c16.8,15.8,32.4,32.9,46.7,50.9,41.4,51.3,41.4,124.6,0,175.9-14.3,18-30,35.1-46.7,50.9l149.4,102.7c36.8,25.1,85.5-8.2,75.4-51.6l-44.3-190h0Z"/>
        <path class="cls-1" d="M350.9,702.5c71.4,98.5,209.1,120.5,307.6,49.1,44.6-32.3,75.4-80.1,86.5-134-96.8,56.4-212.2,87.7-332.4,87.7s-41.4-.9-61.7-2.9h0Z"/>
        <path class="cls-1" d="M745,175.9C720.5,56.8,604-19.9,484.9,4.6c-53.9,11.1-101.7,42-134,86.5,20.3-2,41-2.9,61.7-2.9,120.1,0,235.6,31.3,332.4,87.7h0Z"/>
        <path class="cls-1" d="M849,350.1c-94.5-118-254.6-195.8-436.5-195.8-167.3,0-316.1,65.9-412.5,168.3l85.8,74.1L0,471c96.3,102.4,245.1,168.3,412.5,168.3s342-77.8,436.5-195.8c21.9-27.2,21.9-66.1,0-93.3h0ZM220.4,374.8c-24.4,0-44.1-19.7-44.1-44.1s19.7-44.1,44.1-44.1,44.1,19.7,44.1,44.1h0c0,24.3-19.7,44.1-44.1,44.1h0ZM382.7,514.5c-10.3,15.1-30.9,19-46,8.7-15-10.3-19-30.7-8.8-45.8,32.1-49,32.1-112.3,0-161.2-10.2-15.1-6.3-35.7,8.8-45.9,15.1-10.2,35.7-6.3,45.9,8.8h0c47.3,71.4,47.3,164.1,0,235.5h0Z"/>
      </g>
    </g>
  </g>
</svg>