<?xml version="1.0" encoding="UTF-8"?>
<svg id="Layer_2" data-name="Layer 2" xmlns="http://www.w3.org/2000/svg" viewBox="0 0 1080 1080">
  <defs>
    <style>
      .cls-1 {
        fill: #022873;
      }
    </style>
  </defs>
  <g id="Layer_1-2" data-name="Layer 1">
    <path class="cls-1" d="M540,0C241.77,0,0,241.77,0,540s241.77,540,540,540,540-241.77,540-540S838.23,0,540,0ZM875.78,757.77c0,4.06-3.24,7.39-7.3,7.47-23.52.46-45.61-6.39-66.17-17.82-25.16-13.99-39.23-32.94-69.48-39.62-75.84-16.74-91.63,37.9-150.92,52.9-19.57,4.95-45.67,5.97-65.85,3.86-56.71-5.93-86-60.07-143.35-60.52-62.31-.49-97.42,66.94-161.59,61.66-3.89-.32-6.9-3.55-6.9-7.45v-68.6c0-3.95,3.08-7.25,7.03-7.45,19.88-1.04,39.73-5.25,57.67-13.86,28.7-13.77,51.36-42.36,84.67-46.25,89.77-10.49,110.58,78.92,219.27,56.84,60.03-12.19,76.33-62.36,146.66-57.2,45.1,3.31,66.89,39.95,107.15,52.86,13.53,4.34,27.71,6.92,41.98,7.65,3.99.2,7.14,3.44,7.14,7.43v68.11ZM875.78,609.05c0,4.2-3.46,7.6-7.66,7.47-46.25-1.38-73.67-43.73-117.34-55.77-28.46-7.84-62.06-7.04-90.19,1.66-48.83,15.09-66.34,56.53-125.56,54.06-49.54-2.06-66.3-35.5-106.51-51.06-29.56-11.44-66.76-13.1-97.4-5.18-44.86,11.6-72.27,54.68-119.21,56.25-4.21.14-7.69-3.26-7.69-7.47v-77.31c0-4.04,3.22-7.36,7.26-7.46,14.26-.34,29.27-2.74,42.53-7.19,47.85-16.02,64.09-56.28,123.67-53.53,67.24,3.11,86.33,69.03,179.25,60.67,54.04-4.86,67.38-34.57,107.92-52.09,89.32-38.58,122.31,53.34,203.31,52.47,4.18-.04,7.62,3.28,7.62,7.46v76.99ZM875.78,451.18c0,4.1-3.31,7.43-7.41,7.48-42.77.46-70.82-39.1-109.02-52.55-34.17-12.03-75.53-10.94-109,2.42-32.32,12.9-57.4,45.96-93.41,49.63-89.06,9.07-107.11-77.37-215.09-57.5-52.16,9.6-78.88,55.4-129.83,57.54-4.25.18-7.8-3.21-7.8-7.47v-68.47c0-3.85,2.92-7.07,6.75-7.44,6.21-.6,12.94-.81,18.09-2.11,36.11-9.07,59.85-41.2,95.86-52.03,19.76-5.95,44.27-7.11,64.88-5.65,80.45,5.71,110.71,97.56,204.56,44.77,54.24-30.51,62.58-51.06,134.71-44.62,58.01,5.18,84.6,55.75,139.79,60.26,3.9.32,6.93,3.53,6.93,7.44v68.3Z"/>
  </g>
</svg>