<?xml version="1.0" encoding="UTF-8"?>
<svg id="Text_Accents" xmlns="http://www.w3.org/2000/svg" version="1.1" viewBox="0 0 340.1 167.2">
  <!-- Generator: Adobe Illustrator 29.3.1, SVG Export Plug-In . SVG Version: 2.1.0 Build 151)  -->
  <defs>
    <style>
      .st0 {
        fill: #fff;
      }

      .st1 {
        isolation: isolate;
      }
    </style>
  </defs>
  <g id="hooks">
    <g class="st1">
      <g class="st1">
        <path class="st0" d="M149.2,114.8v-15.7h-2.1v-3.1c.2-.1.5-.3.9-.5.4-.2.7-.3.9-.4s.4-.3.7-.5c.2-.2.5-.5.6-.9h3.1v21.1h-4Z"/>
        <path class="st0" d="M155.7,109.1v-.4h4c0,.2,0,.4,0,.6s0,.4,0,.6,0,.5.1.6c0,.2.1.3.3.5s.2.3.4.4c.2,0,.4.1.6.1s.4,0,.6-.2c.2-.1.3-.3.4-.5s.2-.4.3-.7.1-.5.2-.8c0-.2,0-.5,0-.9,0-.3,0-.6,0-.8v-1.4c-.7.4-1.5.6-2.3.6-3.3,0-5-2.1-5-6.4s0-1.5.2-2.1.3-1.3.6-2c.3-.6.6-1.2,1.1-1.7.4-.5,1-.8,1.6-1.1s1.4-.4,2.2-.4,1.5.1,2.1.4,1.2.7,1.6,1.1.8,1,1.1,1.7c.3.6.5,1.3.6,2s.2,1.4.2,2.1v6.6c0,.8,0,1.6-.1,2.3,0,.7-.3,1.4-.5,2.1-.3.7-.6,1.3-1,1.8-.4.5-1,.9-1.6,1.2s-1.5.5-2.3.5-1.7-.2-2.4-.5-1.3-.7-1.7-1.3c-.4-.5-.8-1.2-1-1.9-.2-.7-.4-1.5-.4-2.4ZM162.7,102.7v-2.8c0-.3,0-.6,0-.9,0-.3-.1-.6-.2-1,0-.3-.3-.6-.5-.8-.2-.2-.5-.3-.8-.3s-.4,0-.6.1c-.2,0-.3.2-.4.4-.1.1-.2.3-.3.6,0,.2-.1.4-.2.6s0,.4,0,.7c0,.3,0,.5,0,.6s0,.3,0,.5v.5c0,.1,0,.3,0,.6,0,.3,0,.5,0,.6s0,.3.2.5c0,.2.2.4.3.5s.2.2.4.3c.2,0,.4.1.6.1.3,0,.6,0,.9-.3s.5-.4.7-.7Z"/>
        <path class="st0" d="M170.3,103.6c-1-1.1-1.5-2.6-1.5-4.5s.5-3.2,1.4-4.3c.9-1,2.3-1.6,4-1.6s3.1.5,4,1.6c.9,1,1.4,2.5,1.4,4.3s-.5,3.5-1.5,4.5c.4.3.7.6.9,1,.2.4.4.8.6,1.2.1.4.2.9.3,1.3,0,.4,0,.9,0,1.4,0,1,0,1.9-.3,2.7s-.5,1.5-.9,2.1c-.4.6-1,1.1-1.8,1.4-.7.3-1.6.5-2.7.5-3.8,0-5.7-2.2-5.7-6.5s.1-2.1.4-2.9c.2-.8.7-1.5,1.4-2.1ZM173.5,111.7c.2,0,.4.1.6.1s.4,0,.6-.1.3-.2.4-.3.2-.3.3-.4.1-.4.2-.5,0-.3,0-.6,0-.4,0-.5,0-.3,0-.5c0-2.3-.6-3.5-1.7-3.5s-1.7,1.2-1.7,3.5,0,.4,0,.5,0,.3,0,.6,0,.4,0,.6.1.3.2.5.2.3.3.4.3.2.4.3ZM174.1,102.2c.2,0,.3,0,.5-.1s.3-.2.4-.3.2-.3.2-.5.1-.4.1-.6,0-.4,0-.7c0-.3,0-.5,0-.6s0-.3,0-.5c0-1.5-.4-2.3-1.3-2.3s-.5,0-.7.2c-.2.2-.3.4-.4.6s-.1.5-.2.7,0,.5,0,.7,0,.5,0,.6,0,.4,0,.7c0,.3,0,.6.1.8s.1.4.2.6c0,.2.2.4.4.5s.3.2.6.2Z"/>
        <path class="st0" d="M192.4,99.1c0,.9-.1,1.8-.4,2.8-.3.9-.7,1.8-1.2,2.6-.5.8-1.1,1.6-1.6,2.2-.5.6-1.1,1.4-1.8,2.2-.7.8-1.2,1.4-1.5,1.9h6.6v4.1h-11.2v-3.6l5.1-7.3c.3-.4.5-.8.7-1.1.2-.3.4-.7.6-1.1.2-.4.4-.9.5-1.3.1-.4.2-.8.2-1.2s0-.5,0-.7-.1-.5-.3-.7c-.1-.2-.3-.4-.5-.6s-.4-.2-.7-.2-.4,0-.6.2c-.2.1-.3.2-.4.4s-.2.4-.3.6c0,.2-.1.5-.2.7s0,.5,0,.8,0,.5,0,.7c0,.2,0,.4,0,.6v.3h-4v-1.3c0-.8,0-1.5.2-2.1.1-.6.3-1.2.6-1.8.3-.6.6-1,1.1-1.4.4-.4,1-.7,1.6-.9.6-.2,1.3-.3,2.2-.3,1.8,0,3.2.5,4.1,1.6s1.5,2.5,1.5,4.2Z"/>
      </g>
    </g>
  </g>
  <g id="text">
    <g class="st1">
      <g class="st1">
        <path class="st0" d="M9,83.2V5.4h15.7c2.8,0,5.3.2,7.5.5,2.2.3,4.3.9,6.4,1.8,2.1.9,3.8,2.1,5.1,3.5,1.3,1.5,2.4,3.4,3.2,5.8.8,2.4,1.2,5.3,1.2,8.5s-.9,7.3-2.8,9.6c-1.9,2.3-4.8,4.2-8.7,5.5,9.1,2.2,13.6,8.8,13.6,19.6s-1.8,13.6-5.5,17.3c-3.7,3.7-9.3,5.6-16.8,5.6H9ZM24.3,36h2.6c1.4,0,2.6-.3,3.6-.8,1-.5,1.7-1.3,2.2-2.4.5-1.1.8-2.2,1-3.4.2-1.2.3-2.6.3-4.3s0-2.4-.3-3.4c-.2-1-.4-1.8-.6-2.4-.2-.6-.6-1.2-1.1-1.6-.5-.4-1-.8-1.4-1-.4-.2-1-.4-1.9-.5-.8-.1-1.5-.2-2-.2-.5,0-1.3,0-2.4,0v20.1ZM24.4,72.1h1.4c2,0,3.6-.2,4.9-.7,1.2-.5,2.2-1.3,2.8-2.4.6-1.2,1.1-2.5,1.3-3.9.2-1.5.3-3.4.3-5.9,0-4.1-.7-7.2-2.1-9.5-1.4-2.2-3.8-3.4-7.1-3.4h-1.5v25.8Z"/>
      </g>
      <g class="st1">
        <path class="st0" d="M53.1,83.2L69.6,5.4h13.6l16.4,77.8h-15.2l-3.1-16.6h-10l-3,16.6h-15.3ZM72.4,56.8h7.9l-3.9-28.9-4,28.9Z"/>
      </g>
      <g class="st1">
        <path class="st0" d="M112.4,83.2v-25.7l-14.3-52.1h14.5l7.1,34.2c.9-3.7,2.2-9.4,3.9-17.1,1.8-7.7,3.1-13.4,3.9-17.1h14.1l-14.4,52.1v25.7h-14.9Z"/>
        <path class="st0" d="M146.2,83.2V5.4h31.8v10.8h-16.4v21.2h11.6v11.1h-11.6v34.8h-15.4Z"/>
        <path class="st0" d="M182.5,83.2V5.4h15.4v77.8h-15.4Z"/>
        <path class="st0" d="M207,83.2V5.4h31.8v10.8h-16.4v21.2h11.6v11.1h-11.6v23.9h16.4v10.8h-31.8Z"/>
        <path class="st0" d="M244.3,83.2V5.4h15.4v67h15.2v10.8h-30.6Z"/>
        <path class="st0" d="M279.8,83.2V5.4h15.9c5.1,0,9.3.5,12.6,1.4,3.3.9,5.9,2.5,7.8,4.6,1.9,2.1,3.2,4.7,3.9,7.7.7,3,1.1,6.8,1.1,11.5v25.5c0,2.8,0,5.2-.3,7.2-.2,2.1-.5,4.1-1,6.1-.5,2-1.1,3.6-1.9,5-.8,1.4-1.8,2.6-3.1,3.8-1.3,1.2-2.8,2.1-4.6,2.8-1.8.7-3.9,1.2-6.3,1.6-2.4.4-5.2.6-8.3.6h-15.8ZM295.8,72.1c1.5,0,2.6,0,3.5,0,.8,0,1.7-.2,2.5-.3s1.5-.4,1.9-.7c.4-.3.8-.7,1.1-1.3.3-.6.6-1.3.7-2.1,0-.8.1-1.8.1-3V22.8c0-2.6-.7-4.3-2.2-5.1-1.5-.8-4-1.3-7.5-1.3v55.7Z"/>
      </g>
    </g>
    <g class="st1">
      <g class="st1">
        <path class="st0" d="M146.4,155.6l8.2-23.2h4l8.3,23.2,2.1.4v1.8h-9.2v-1.8l2.7-.4-1.6-4.9h-9.8l-1.5,4.9,2.9.4v1.8h-8.2v-1.8s2.1-.4,2.1-.4ZM160.3,148.7l-3.6-10.8-.7-2.8-.7,2.8-3.4,10.8h8.5Z"/>
        <path class="st0" d="M172.8,152.3l.7,2.4c.1.2.4.4.8.6.4.2.8.4,1.4.5s1.1.2,1.6.2c1.3,0,2.2-.2,2.7-.7.5-.5.8-1.1.8-1.9s-.2-1-.5-1.5-.9-.8-1.6-1.2c-.7-.4-1.7-.8-2.9-1.3-1.8-.7-3.1-1.4-3.9-2.3-.8-.9-1.2-2.1-1.2-3.5s.3-1.8.9-2.5c.6-.7,1.4-1.3,2.5-1.7,1.1-.4,2.2-.6,3.6-.6s1.9,0,2.7.2c.8.2,1.6.4,2.4.6l.6.2v4.1h-2.1l-.7-2.2c-.1-.3-.5-.5-1.1-.7-.6-.2-1.2-.3-2-.3-1,0-1.8.2-2.4.6-.6.4-.8,1-.8,1.6s.2,1.1.5,1.5c.3.4.7.7,1.2,1,.5.3,1.2.6,2.1.9l.7.3c1.3.5,2.3,1,3.1,1.5.8.5,1.4,1,2,1.8.5.7.8,1.6.8,2.6s-.3,2-.9,2.8c-.6.8-1.4,1.4-2.5,1.9-1.1.4-2.4.7-3.9.7s-2.3-.2-3.6-.5c-1.2-.3-2.2-.6-3-1v-4.2h2.4Z"/>
        <path class="st0" d="M190.2,152.3l.7,2.4c.1.2.4.4.8.6.4.2.8.4,1.4.5s1.1.2,1.6.2c1.3,0,2.2-.2,2.7-.7.5-.5.8-1.1.8-1.9s-.2-1-.5-1.5-.9-.8-1.6-1.2c-.7-.4-1.7-.8-2.9-1.3-1.8-.7-3.1-1.4-3.9-2.3-.8-.9-1.2-2.1-1.2-3.5s.3-1.8.9-2.5c.6-.7,1.4-1.3,2.5-1.7,1.1-.4,2.2-.6,3.6-.6s1.9,0,2.7.2c.8.2,1.6.4,2.4.6l.6.2v4.1h-2.1l-.7-2.2c-.1-.3-.5-.5-1.1-.7-.6-.2-1.2-.3-2-.3-1,0-1.8.2-2.4.6-.6.4-.8,1-.8,1.6s.2,1.1.5,1.5c.3.4.7.7,1.2,1,.5.3,1.2.6,2.1.9l.7.3c1.3.5,2.3,1,3.1,1.5.8.5,1.4,1,2,1.8.5.7.8,1.6.8,2.6s-.3,2-.9,2.8c-.6.8-1.4,1.4-2.5,1.9-1.1.4-2.4.7-3.9.7s-2.3-.2-3.6-.5c-1.2-.3-2.2-.6-3-1v-4.2h2.4Z"/>
        <path class="st0" d="M218.4,140.1c1.3.8,2.2,1.9,2.9,3.4.6,1.4.9,3.1.9,4.9s-.4,3.7-1.3,5.1c-.9,1.4-2,2.5-3.4,3.3s-2.9,1.1-4.4,1.1-3.5-.4-4.8-1.2c-1.3-.8-2.2-1.9-2.9-3.4-.6-1.4-.9-3.1-.9-4.9s.4-3.6,1.3-5.1,2-2.5,3.4-3.3,2.9-1.1,4.4-1.1,3.5.4,4.8,1.2ZM216.9,143c-.7-1.4-1.9-2.1-3.5-2.1s-2.7.6-3.5,1.8c-.8,1.2-1.2,3-1.2,5.3s.4,4.2,1.1,5.6c.8,1.4,1.9,2.1,3.5,2.1,3.1,0,4.6-2.4,4.6-7.1s-.4-4.2-1.1-5.6Z"/>
        <path class="st0" d="M239.6,139.9l-.2,4.9h-2.3l-.8-2.9c-.2-.3-.5-.6-.9-.8s-1-.3-1.7-.3c-1,0-1.8.3-2.6.8-.7.5-1.3,1.3-1.7,2.3s-.6,2.3-.6,3.8.2,3.2.7,4.3c.5,1.1,1.1,2,2,2.5.8.5,1.8.8,2.8.8s1.9-.1,2.7-.4c.8-.3,1.5-.6,2.1-1l.7,1.4c-.4.4-.9.8-1.6,1.2s-1.4.7-2.2.9c-.8.2-1.7.4-2.5.4-1.9,0-3.5-.4-4.8-1.2-1.3-.8-2.3-1.9-2.9-3.3-.7-1.4-1-3-1-4.7s.4-3.5,1.1-5c.7-1.5,1.8-2.7,3.3-3.5,1.4-.9,3.2-1.3,5.2-1.3s3.3.3,5.1,1Z"/>
        <path class="st0" d="M245,155.8v-14l-2.4-.7v-2l5.3-.7h0l.9.7v16.7l2.7.3v1.8h-9.2v-1.8l2.7-.3ZM245,131.1c.4-.5,1.1-.8,1.8-.8h0c.5,0,.9.1,1.2.3.3.2.6.5.8.9.2.4.3.7.3,1.1,0,.8-.2,1.4-.7,1.9s-1.1.8-1.9.8h0c-.6,0-1.2-.2-1.6-.7-.4-.4-.6-1-.6-1.6s.2-1.4.7-1.9Z"/>
        <path class="st0" d="M265,145.2c0-.9-.1-1.6-.3-2.1s-.6-.9-1.1-1.1c-.5-.2-1.3-.4-2.3-.4-1.9,0-3.9.5-5.9,1.4h0l-.8-1.5c.3-.3.9-.6,1.7-1s1.8-.8,2.9-1.1c1.1-.3,2.1-.5,3.1-.5,1.6,0,2.9.2,3.8.6.9.4,1.6,1.1,2,2,.4.9.6,2.2.6,3.8v10.4h2v1.6c-1.6.4-2.8.6-3.7.6s-.8,0-1.1-.1c-.2,0-.4-.2-.5-.5-.1-.2-.2-.6-.2-1.1v-.8c-.6.6-1.4,1.2-2.4,1.7-1,.5-2.1.8-3.3.8s-2-.2-2.9-.6c-.9-.4-1.6-1-2.1-1.8-.5-.8-.8-1.8-.8-3s.5-2.7,1.5-3.7c1-1,2.4-1.7,4.1-2.1,1.7-.5,3.5-.7,5.6-.7v-.7ZM265,147.9c-1.6,0-3,.2-4,.6-1,.4-1.8.9-2.3,1.5s-.7,1.3-.7,2.1c0,1.2.3,2,.9,2.6s1.4.8,2.3.8,1.2-.1,1.9-.4c.7-.3,1.4-.7,1.9-1.1v-6Z"/>
        <path class="st0" d="M272.7,141.3v-1.6c.3,0,.7-.2,1.1-.4.4-.2.7-.3.8-.4.4-.3.7-.7.9-1.4.2-.4.4-1,.7-1.9.3-.9.5-1.5.6-2h2.2v5.2h5.6v2.4h-5.6v9.8c0,1.3,0,2.2.1,2.8,0,.5.2.8.5,1s.7.2,1.3.2h0c.6,0,1.2,0,2-.2.7-.1,1.3-.3,1.7-.4h0l.6,1.6c-.3.3-.8.6-1.5.8-.7.3-1.4.5-2.2.7-.8.2-1.5.3-2.1.3h0c-1.4,0-2.4-.3-3.1-.9-.7-.6-1.1-1.6-1.1-3v-12.7h-2.4Z"/>
        <path class="st0" d="M289.5,155.8v-14l-2.4-.7v-2l5.3-.7h0l.9.7v16.7l2.7.3v1.8h-9.2v-1.8l2.7-.3ZM289.4,131.1c.4-.5,1.1-.8,1.8-.8h0c.5,0,.9.1,1.2.3.3.2.6.5.8.9.2.4.3.7.3,1.1,0,.8-.2,1.4-.7,1.9s-1.1.8-1.9.8h0c-.6,0-1.2-.2-1.6-.7-.4-.4-.6-1-.6-1.6s.2-1.4.7-1.9Z"/>
        <path class="st0" d="M312.1,140.1c1.3.8,2.2,1.9,2.9,3.4.6,1.4.9,3.1.9,4.9s-.4,3.7-1.3,5.1c-.8,1.4-2,2.5-3.4,3.3-1.4.7-2.9,1.1-4.4,1.1s-3.5-.4-4.8-1.2c-1.3-.8-2.2-1.9-2.9-3.4-.6-1.4-.9-3.1-.9-4.9s.4-3.6,1.3-5.1c.9-1.4,2-2.5,3.4-3.3,1.4-.8,2.9-1.1,4.4-1.1s3.5.4,4.8,1.2ZM310.5,143c-.7-1.4-1.9-2.1-3.5-2.1s-2.7.6-3.5,1.8-1.2,3-1.2,5.3.4,4.2,1.1,5.6c.8,1.4,1.9,2.1,3.5,2.1,3.1,0,4.6-2.4,4.6-7.1s-.4-4.2-1.1-5.6Z"/>
        <path class="st0" d="M321.1,155.8v-13.5l-2.4-.6v-2.1l4.9-.7h0l.8.7v2.2c.5-.5,1.1-.9,1.9-1.4.8-.4,1.6-.8,2.5-1.1s1.7-.4,2.5-.4c1.4,0,2.6.3,3.4.8.8.5,1.3,1.3,1.7,2.4s.5,2.6.5,4.5v9.2l2.4.3v1.8h-8.4v-1.8l2.1-.3v-9.2c0-1.3,0-2.2-.3-3-.2-.7-.5-1.3-1-1.6-.5-.4-1.2-.5-2.1-.5s-1.6.2-2.5.5c-.9.4-1.6.8-2.3,1.3v12.5l2.3.3v1.8h-8.3v-1.8l2.2-.3Z"/>
      </g>
    </g>
  </g>
  <g id="lines">
    <g class="st1">
      <g class="st1">
        <path class="st0" d="M3.6,155.6l8.2-23.2h4l8.3,23.2,2.1.4v1.8h-9.2v-1.8l2.7-.4-1.6-4.9h-9.8l-1.5,4.9,2.9.4v1.8H1.5v-1.8s2.1-.4,2.1-.4ZM17.5,148.7l-3.6-10.8-.7-2.8-.7,2.8-3.4,10.8h8.5Z"/>
        <path class="st0" d="M29.6,155.8v-13.5l-2.4-.6v-2.1l4.9-.7h0l.8.7v2.2c.5-.5,1.1-.9,1.9-1.4.8-.4,1.6-.8,2.5-1.1s1.7-.4,2.5-.4c1.4,0,2.6.3,3.4.8.8.5,1.3,1.3,1.7,2.4.3,1.1.5,2.6.5,4.5v9.2l2.4.3v1.8h-8.4v-1.8l2.1-.3v-9.2c0-1.3,0-2.2-.3-3-.2-.7-.5-1.3-1-1.6-.5-.4-1.2-.5-2.1-.5s-1.6.2-2.5.5c-.9.4-1.6.8-2.3,1.3v12.5l2.3.3v1.8h-8.3v-1.8l2.2-.3Z"/>
        <path class="st0" d="M58.3,151c-.9,0-1.8,0-2.6-.3-.3.3-.6.6-.7,1-.2.4-.3.7-.3,1.1,0,.6.1,1,.4,1.3.3.3.7.5,1.2.6s1.3.2,2.2.2h3.6c4.3,0,6.5,1.7,6.5,5s-.5,2.5-1.4,3.6-2.1,2-3.7,2.6-3.2,1-4.9,1h0c-3,0-5.1-.5-6.5-1.4-1.3-.9-2-2.2-2-3.8s.3-2,.9-2.8c.6-.8,1.3-1.5,2.2-1.9-1.1-.6-1.6-1.5-1.6-2.8s.2-1.6.7-2.3c.5-.7,1.1-1.3,1.9-1.7-1.1-.5-2-1.2-2.6-2.1-.6-.9-.9-1.9-.9-3.1s.4-2.3,1.1-3.3c.7-.9,1.7-1.6,2.9-2.1,1.2-.5,2.5-.7,3.9-.7h0c1.2,0,2.3.1,3.2.4s1.8.7,2.4,1.2c.3-.4.8-.7,1.5-1.1s1.5-.5,2.4-.5h.9v3.2h-3.5c.4.8.6,1.6.6,2.5s-.3,2.4-1,3.3c-.7,1-1.6,1.7-2.8,2.3-1.2.5-2.5.8-4,.8h0ZM53.9,160.8c0,1.3.4,2.3,1.2,3,.8.7,2.1,1,3.9,1h0c1,0,2-.2,2.9-.5.9-.3,1.7-.8,2.2-1.4s.9-1.3.9-2.2-.1-1.3-.3-1.7-.6-.7-1.2-.9c-.6-.2-1.4-.3-2.5-.3h-3.4c-.9,0-1.8,0-2.6-.2-.7.9-1.1,1.9-1.1,3.2ZM58.5,140.8c-1.2,0-2.1.3-2.8.9-.7.6-1,1.6-1,3s.3,2.4.9,3.1,1.6,1.2,3,1.2h0c1.3,0,2.2-.4,2.8-1.1.6-.7.9-1.7.9-3.1s-.3-2.4-.9-3.1c-.6-.7-1.6-1-2.9-1h0Z"/>
        <path class="st0" d="M73.5,155.8v-23.3l-2.7-.3v-1.6l5.7-.7h0l.8.6v25.3l2.8.3v1.8h-9.3v-1.8l2.7-.3Z"/>
        <path class="st0" d="M83.6,143.4c.8-1.4,1.8-2.6,3.2-3.4,1.4-.8,2.9-1.2,4.6-1.2s3.8.5,5,1.6c1.2,1.1,1.8,2.6,1.9,4.6v.5c0,1.1,0,1.9-.2,2.4h-11.6c0,1.6.3,3,.8,4.1.5,1.1,1.2,1.9,2,2.4.8.5,1.8.8,2.8.8s1.8-.2,2.8-.5c1-.3,1.7-.7,2.3-1.1l.7,1.6c-.4.4-1,.8-1.7,1.2-.7.4-1.6.7-2.5.9-.9.2-1.8.4-2.7.4-1.9,0-3.4-.4-4.7-1.2-1.3-.8-2.2-1.9-2.9-3.3-.6-1.4-1-3.1-1-5s.4-3.5,1.2-5ZM94.2,146.2c0-.3,0-.8,0-1.2,0-1.2-.3-2.2-.9-2.9-.6-.7-1.5-1.1-2.7-1.1s-2.2.4-3,1.2c-.7.8-1.1,2.1-1.2,4.1h7.8Z"/>
        <path class="st0" d="M103.7,155.8v-13.5l-2.4-.7v-2l4.8-.7h0l.8.7v3.4s0,0,0,0c.2-.4.6-.9,1.2-1.5.6-.6,1.3-1.2,2.2-1.8.9-.5,1.9-.8,3-.8s.8,0,1.1.2v4.2c-.2-.2-.5-.3-.8-.4-.4-.1-.7-.2-1.1-.2-1.1,0-2.1.1-2.9.4s-1.5.6-2,1.1v11.7h4.4v1.9h-10.8v-1.8l2.6-.3Z"/>
        <path class="st0" d="M119.6,152.3l.7,2.4c.1.2.4.4.8.6s.8.4,1.4.5,1.1.2,1.6.2c1.3,0,2.2-.2,2.7-.7s.8-1.1.8-1.9-.2-1-.5-1.5-.9-.8-1.6-1.2c-.7-.4-1.7-.8-2.9-1.3-1.8-.7-3.1-1.4-3.9-2.3-.8-.9-1.2-2.1-1.2-3.5s.3-1.8.9-2.5c.6-.7,1.4-1.3,2.5-1.7s2.2-.6,3.6-.6,1.9,0,2.7.2c.8.2,1.6.4,2.4.6l.6.2v4.1h-2.1l-.7-2.2c-.1-.3-.5-.5-1.1-.7s-1.2-.3-2-.3c-1,0-1.8.2-2.4.6-.6.4-.8,1-.8,1.6s.2,1.1.5,1.5c.3.4.7.7,1.2,1,.5.3,1.2.6,2.1.9l.7.3c1.3.5,2.3,1,3.1,1.5.8.5,1.4,1,2,1.8.5.7.8,1.6.8,2.6s-.3,2-.9,2.8-1.4,1.4-2.5,1.9c-1.1.4-2.4.7-3.9.7s-2.3-.2-3.6-.5c-1.2-.3-2.2-.6-3-1v-4.2h2.4Z"/>
      </g>
    </g>
    <polygon class="st0" points="0 105.8 127.5 102.3 127.5 109.4 0 105.8"/>
    <polyline class="st0" points="336.5 105.8 209 109.4 209 102.3 336.5 105.8"/>
  </g>
</svg>