<?xml version="1.0" encoding="UTF-8"?>
<svg id="Layer_2" data-name="Layer 2" xmlns="http://www.w3.org/2000/svg" viewBox="0 0 1080 1080">
  <defs>
    <style>
      .cls-1 {
        fill: #022873;
      }
    </style>
  </defs>
  <g id="Layer_1-2" data-name="Layer 1">
    <path class="cls-1" d="M540,0C241.77,0,0,241.77,0,540s241.77,540,540,540,540-241.77,540-540S838.23,0,540,0ZM354.78,781.43c-2.53,29.58-20.45,50.07-50.52,52.67-15.87,1.37-56.79,5.72-57.09-16.15l1.01-216.2c4.92-16.19,35.83-13.93,49.64-12.87,14.72,1.13,30.25,5.25,41.07,15.9,8.55,8.42,14.61,22.78,15.79,34.72,3.48,35.02,3.12,106.57.1,141.94ZM366.09,319.81c20.41-89.12,138.07-112.62,184.27-31.83,2.99.71,3.53-.44,5.39-2.08,8.16-7.18,15.86-20.2,25.79-27.95,53.93-42.11,132.63-12.61,154.68,49.44,31.85,89.62-42.64,150.85-102.03,203.13-17.88,15.74-51.54,47.66-69.88,59.1-10.61,6.62-16.19,4.65-25.81-2.17-22.04-15.62-53.24-44.6-74.2-63.38-54.77-49.04-117.1-101.82-98.21-184.26ZM831.99,673.92c-17.84,29.7-67.71,96.51-91.39,121.42-20.43,21.49-51.97,36.52-81.63,38.75-62.2,4.68-180.1,4.72-239.82-7.56-5.67-1.17-28.33-4.68-29.77-8.92l-.31-212.1c37.52-26.53,85.63-29.8,126.6-8.78,23.78,12.2,28.54,26.43,59.3,28.83,21.21,1.66,62.16-5.37,78.39,5.45,26.52,17.67,15.56,59.68-15.97,63.27-33.53,3.82-82.28-5.78-113.44.49-20.49,4.13-19.42,31.51,1.61,33.95,46.13,5.34,105.85-2.43,152.79-2.09,10.56-3.36,17.04-8.64,24.66-16.18,29.27-28.94,54.12-67.52,83.94-96.64,12.8-9.23,35.5-7.77,46.38,3.83,16.16,17.22,9.27,38.62-1.33,56.27Z"/>
  </g>
</svg>