<?xml version="1.0" encoding="UTF-8"?>
<svg id="Layer_2" data-name="Layer 2" xmlns="http://www.w3.org/2000/svg" viewBox="0 0 1080 1080">
  <defs>
    <style>
      .cls-1 {
        fill: #022873;
      }
    </style>
  </defs>
  <g id="Layer_1-2" data-name="Layer 1">
    <g>
      <path class="cls-1" d="M371.6,386h263.66c28.91-2.52,25.36-36.66-2.21-37.67l-263.09.59c-26.64,3.36-24.85,35.29,1.63,37.08Z"/>
      <path class="cls-1" d="M587.58,446.98l-220.45-1.2c-14.73.1-21.38,20.54-11.52,30.44,3.25,3.27,11.22,4.75,15.88,5.17,66.14,6.01,141.32-4.77,208.44-.07,19.71-2.33,24.14-23.43,7.65-34.34Z"/>
      <path class="cls-1" d="M524.36,541.22l-158.93.34c-18.52,6.15-20.27,29.94-.34,34.85h161.47c19.94-4.38,17.38-32.1-2.2-35.19Z"/>
      <path class="cls-1" d="M540,0C241.77,0,0,241.77,0,540s241.77,540,540,540,540-241.77,540-540S838.23,0,540,0ZM731.65,805.87c0,15.02-31.3,42.02-47.62,41l-370.73-1.53c-18.51-5.81-32.07-18.62-38.19-37.14l-2.11-527.45c3.39-23.24,21.05-41.71,43.74-47.1l367.29-.54c22.12,2.39,45.08,22.83,47.63,45.43l-.46,161.3-157.83,159.01c-8.22,11.56-54.83,111.49-56.45,123.02-6.37,45.65,32.72,75.13,75.11,59.6,27.3-10,80.74-34.76,105.7-49.4,13.1-7.69,22.17-20.03,33.92-29.23v103.03ZM682.76,699.37c-31.88,10.12-73.37,40.92-103.92,48.94-17.56,4.61-28.56-3.54-26.2-21.68l49.53-105.63,139.45-139.69,76.57,76.33,1.11,5.59-136.54,136.14ZM847.97,536.62l-80.83-80.83c11.95-9.22,29.27-35.28,43.67-38.26,13.05-2.7,23.12-.09,33.65,7.43,6.43,4.59,28.85,26.73,33.41,33.06,25.32,35.11-7.76,55.58-29.9,78.61Z"/>
    </g>
  </g>
</svg>