<?xml version="1.0" encoding="UTF-8"?>
<svg id="Layer_2" data-name="Layer 2" xmlns="http://www.w3.org/2000/svg" viewBox="0 0 1080 1080">
  <defs>
    <style>
      .cls-1 {
        fill: #022873;
      }
    </style>
  </defs>
  <g id="Layer_1-2" data-name="Layer 1">
    <g>
      <path class="cls-1" d="M629.91,435.12c-25.51-17.72-38.45,34.5-42.01,50.91-7.69,35.41-9.24,131.73,15.34,159.36,15.05,16.92,36.69,4.02,30.31-17.29-1.73-5.8-6.17-10.9-7.89-17.17-13.64-49.58-9.82-114.07,12.1-160.81.08-5.08-3.69-12.12-7.84-15Z"/>
      <path class="cls-1" d="M832.8,497.61c-17.47-11.22-39.57,17.08-17.27,31.46,16.59,10.69,39.62-17.1,17.27-31.46Z"/>
      <path class="cls-1" d="M540,0C241.77,0,0,241.77,0,540s241.77,540,540,540,540-241.77,540-540S838.23,0,540,0ZM420.72,290.88c7.4-25.43,31.21-11.25,48.25-5.24,41.26,14.56,81.66,32.59,122.54,48.18-48.42,6.61-94.78,17.79-139.72,37.46-8.99,3.94-17.76,9.8-26.58,13.6-2.23.96-1.83,3.52-4.61-.33l.11-93.67ZM195.76,635.39c-22.96,6.1-31.38-26.06-36.44-43.2-10.88-36.79-9.92-81.17,3.61-117.09,5.6-14.87,10.55-31.85,29.71-30.81l102.25,36.26c-11.16,12.72-47.64,42.79-44.7,60.12,2.7,15.93,36.82,45.33,47.82,58.55l-102.25,36.17ZM444,834.25c-14.83,1.11-19.61-7.1-21.84-20.36l.75-117.86c51.05,32.3,109.35,50.37,168.61,59.29l-147.52,78.92ZM456.49,674.93c-62.86-33.46-120.25-82.23-165.95-136.61,107.09-132.93,288.81-204.31,454.78-153.76-76.97,85.01-86.67,231.27-7.04,317.71-93.04,34.34-195.53,18.56-281.79-27.35ZM911.99,575.01c-35.3,46.4-86.02,86.49-137.79,112.75-70.04-60.94-71.08-185.74-18.65-257.95,8.28-11.41,17.03-22.99,29.58-29.88,50.71,25.32,95.44,62.78,127.9,109.5,20.15,29,20.43,37.37-1.03,65.57Z"/>
    </g>
  </g>
</svg>