<?xml version="1.0" encoding="UTF-8"?>
<svg id="Layer_2" data-name="Layer 2" xmlns="http://www.w3.org/2000/svg" viewBox="0 0 1080 1080">
  <defs>
    <style>
      .cls-1 {
        fill: #022873;
      }
    </style>
  </defs>
  <g id="Layer_1-2" data-name="Layer 1">
    <path class="cls-1" d="M540,0C241.77,0,0,241.77,0,540s241.77,540,540,540,540-241.77,540-540S838.23,0,540,0ZM277.01,343.71c15.62-13.48,35.4-19.12,55.74-20.63,133.46,4.75,274.09-8.48,406.75-.74,43.74,2.55,80.34,21.29,90.16,66.87l-289.66,179.28-288.51-176.06c-6.87-11.19,16.89-41.28,25.52-48.73ZM833.8,682c0,29.79-40.76,71.3-71.32,72.93-137.73-1.78-284.85,10.48-421.98,2.48-34.47-2.01-63.91-12.19-81.93-43.23-3.44-5.93-12.37-26.44-12.37-32.18v-236.52l277.19,169.34c17.21,7.52,22.6,4.33,38.18-3.53l272.23-165.82v236.52Z"/>
  </g>
</svg>