<?xml version="1.0" encoding="UTF-8"?>
<svg xmlns="http://www.w3.org/2000/svg" version="1.1" viewBox="0 0 1061.1 1080">
  <defs>
    <style>
      .cls-1 {
        fill: #bf0b1a;
      }
    </style>
  </defs>
  <!-- Generator: Adobe Illustrator 28.6.0, SVG Export Plug-In . SVG Version: 1.2.0 Build 709)  -->
  <g>
    <g id="Layer_1">
      <g>
        <path class="cls-1" d="M909.5,1063.8c0-5.9-3.2-11.4-8.5-14.2-64.1-34.5-122.6-87.2-148.3-113.7-7.9-8.3-20.5-9.8-30.1-3.6-119.2,76.8-264.4,76.8-383.6.1-9.7-6.3-22.5-4.7-30.4,3.7-25.5,26.7-83.4,78.9-147.9,113.1-5.2,2.6-8.7,7.8-9.2,13.6-.7,8.8,5.9,16.4,14.6,17.2,1.4.1,2.8,0,4.1-.2,49.4-9.9,97.1-32.4,142.6-56.4,5.9-3.1,13-3.2,19-.1,124.9,63.5,272.6,63.5,397.5,0,6-3.1,13.2-3,19.2.1,45.2,23.7,92.9,46.4,142.1,56.4,8.7,1.7,17-4,18.7-12.6.2-1.1.3-2.2.3-3.2h0s0,0,0,0Z"/>
        <path class="cls-1" d="M1053.3,528h0c-8.3-19.9-25.8-35.3-49.5-43.5l-56.4-22.5v-196.8c0-83.7-67.9-151.6-151.6-151.6h-75.8v-18.9C720,42.4,677.6,0,625.3,0h-189.5C383.5,0,341.1,42.4,341.1,94.7v18.9h-75.8c-83.7,0-151.6,67.9-151.6,151.6v196.9l-55.8,22.2c-23.5,7.8-41.8,23.7-50.1,43.7-5.8,14-12.4,35.5-3.1,62.7l.2.7,110.5,282.9c8.3,21.3,28.9,35.2,51.7,35.1,1.2,0,2.4,0,3.6-.1,74.2-4.7,132.6-40.9,172-74.9,56.2,48.5,122.2,75,187.8,75s131.3-26.5,187.5-75.1c39.3,34,97.8,70.3,172,75,24.1,1.7,46.5-12.4,55.3-34.9l110.5-281.9c7.8-19.2,6.9-42.1-2.5-64.7h0ZM561.3,308.4l-2.7-1c-18.3-5.8-37.9-5.8-56.2,0l-1.4.4-298.6,119c-4.9,1.9-10.4-.4-12.3-5.3-.4-1.1-.7-2.3-.7-3.5v-152.8c0-41.9,33.9-75.8,75.8-75.8h530.5c41.9,0,75.8,33.9,75.8,75.8v152.6c0,5.2-4.2,9.5-9.5,9.5s-2.4-.2-3.5-.7l-297.3-118.3h0Z"/>
      </g>
    </g>
  </g>
</svg>