<?xml version="1.0" encoding="UTF-8"?>
<svg id="Layer_1" data-name="Layer 1" xmlns="http://www.w3.org/2000/svg" viewBox="0 0 1080 793.52">
  <defs>
    <style>
      .cls-1 {
        fill: #000;
        stroke-width: 0px;
      }
    </style>
  </defs>
  <g id="Fish">
    <path class="cls-1" d="M1034.34,396.78l44.3-189.99c10.14-43.42-38.57-76.7-75.38-51.57l-149.44,102.71c16.76,15.84,32.38,32.86,46.73,50.91,41.43,51.31,41.43,124.58,0,175.89-14.35,18.05-29.97,35.07-46.73,50.91l149.44,102.71c36.81,25.12,85.51-8.16,75.38-51.58l-44.3-189.99Z"/>
    <path class="cls-1" d="M350.86,702.48c71.37,98.5,209.07,120.5,307.58,49.14,44.57-32.29,75.43-80.09,86.51-133.99-96.76,56.42-212.25,87.72-332.37,87.72-20.72,0-41.43-.88-61.71-2.86Z"/>
    <path class="cls-1" d="M744.95,175.93C720.45,56.79,604-19.94,484.86,4.56c-53.91,11.08-101.71,41.95-134,86.52,20.28-1.98,41-2.87,61.71-2.87,120.12,0,235.62,31.3,332.38,87.72Z"/>
    <path class="cls-1" d="M848.98,350.15c-94.53-118.04-254.57-195.8-436.49-195.8C245.14,154.35,96.36,220.2,0,322.64l85.75,74.15L0,470.95c96.35,102.44,245.14,168.29,412.5,168.29,181.92,0,341.95-77.76,436.49-195.79,21.91-27.24,21.91-66.06,0-93.3ZM220.41,374.75c-24.35,0-44.08-19.74-44.08-44.08s19.74-44.08,44.08-44.08,44.08,19.74,44.08,44.08h0c0,24.34-19.73,44.08-44.08,44.08h0ZM382.68,514.55c-10.29,15.09-30.87,18.97-45.95,8.68-15.04-10.26-18.95-30.74-8.76-45.83,32.06-48.96,32.06-112.26,0-161.23-10.25-15.11-6.32-35.67,8.79-45.92,15.11-10.25,35.67-6.32,45.92,8.79h0c47.27,71.39,47.27,164.12,0,235.51h0Z"/>
  </g>
</svg>