<?xml version="1.0" encoding="UTF-8"?>
<svg id="Layer_2" data-name="Layer 2" xmlns="http://www.w3.org/2000/svg" xmlns:xlink="http://www.w3.org/1999/xlink" viewBox="0 0 1080 1080">
  <defs>
    <style>
      .cls-1 {
        fill: none;
      }

      .cls-2 {
        fill: #bf0b1a;
      }

      .cls-3 {
        clip-path: url(#clippath);
      }
    </style>
    <clipPath id="clippath">
      <rect class="cls-1" width="1080" height="1080"/>
    </clipPath>
  </defs>
  <g id="Layer_1-2" data-name="Layer 1">
    <g class="cls-3">
      <g id="Layer_1-3" data-name="Layer 1">
        <g>
          <path class="cls-2" d="M917.87,1062.27c0-5.88-3.19-11.37-8.48-14.16-63.92-34.4-122.25-86.95-147.88-113.38-7.88-8.28-20.44-9.77-30.01-3.59-118.86,76.58-263.65,76.58-382.51.1-9.67-6.28-22.44-4.69-30.31,3.69-25.43,26.62-83.16,78.68-147.48,112.78-5.19,2.59-8.68,7.78-9.17,13.56-.7,8.78,5.88,16.35,14.56,17.15,1.4.1,2.79,0,4.09-.2,49.26-9.87,96.83-32.31,142.2-56.24,5.88-3.09,12.96-3.19,18.95-.1,124.55,63.32,271.83,63.32,396.37,0,5.98-3.09,13.16-2.99,19.15.1,45.07,23.63,92.64,46.27,141.7,56.24,8.68,1.7,16.95-3.99,18.65-12.56.2-1.1.3-2.19.3-3.19h0l-.1-.2Z"/>
          <path class="cls-2" d="M1061.26,527.98h0c-8.28-19.84-25.73-35.2-49.36-43.38l-56.24-22.44v-196.24c0-83.46-67.71-151.17-151.17-151.17h-75.59v-18.85c0-52.15-42.28-94.43-94.43-94.43h-188.96c-52.15,0-94.43,42.28-94.43,94.43v18.85h-75.59c-83.46,0-151.17,67.71-151.17,151.17v196.34l-55.64,22.14c-23.43,7.78-41.68,23.63-49.96,43.58-5.78,13.96-12.36,35.4-3.09,62.52l.2.7,110.19,282.1c8.28,21.24,28.82,35.1,51.55,35,1.2,0,2.39,0,3.59-.1,73.99-4.69,132.22-40.78,171.51-74.69,56.04,48.36,121.85,74.79,187.27,74.79s130.93-26.42,186.97-74.89c39.19,33.9,97.52,70.1,171.51,74.79,24.03,1.7,46.37-12.36,55.14-34.8l110.19-281.1c7.78-19.15,6.88-41.98-2.49-64.52h0v.2ZM570.65,309.01l-2.69-1c-18.25-5.78-37.79-5.78-56.04,0l-1.4.4-297.75,118.66c-4.89,1.89-10.37-.4-12.27-5.28-.4-1.1-.7-2.29-.7-3.49v-152.37c0-41.78,33.8-75.59,75.59-75.59h529c41.78,0,75.59,33.8,75.59,75.59v152.17c0,5.19-4.19,9.47-9.47,9.47s-2.39-.2-3.49-.7l-296.46-117.97h0l.1.1Z"/>
        </g>
      </g>
    </g>
  </g>
</svg>