<?xml version="1.0" encoding="UTF-8"?>
<svg xmlns="http://www.w3.org/2000/svg" xmlns:xlink="http://www.w3.org/1999/xlink" viewBox="0 0 1080 1080">
  <defs>
    <style>
      .cls-1 {
        mix-blend-mode: screen;
      }

      .cls-1, .cls-2 {
        opacity: .5;
      }

      .cls-3, .cls-4 {
        fill: #fff;
      }

      .cls-5, .cls-6, .cls-2 {
        fill: #e11f26;
      }

      .cls-7 {
        fill: none;
      }

      .cls-8 {
        fill: url(#linear-gradient-4);
      }

      .cls-6 {
        opacity: .2;
      }

      .cls-9 {
        isolation: isolate;
      }

      .cls-10 {
        fill: url(#linear-gradient-3);
        mix-blend-mode: multiply;
        opacity: .9;
      }

      .cls-11 {
        fill: url(#linear-gradient-2);
      }

      .cls-11, .cls-4 {
        opacity: .6;
      }

      .cls-12 {
        fill: #d34c4c;
      }

      .cls-13 {
        fill: #c1c1c1;
      }

      .cls-14 {
        fill: url(#linear-gradient);
      }

      .cls-15 {
        clip-path: url(#clippath);
      }
    </style>
    <clipPath id="clippath">
      <rect class="cls-7" width="1080" height="1080"/>
    </clipPath>
    <linearGradient id="linear-gradient" x1="376.14" y1="857.62" x2="688.65" y2="857.62" gradientUnits="userSpaceOnUse">
      <stop offset="0" stop-color="#000"/>
      <stop offset="1" stop-color="#fff"/>
    </linearGradient>
    <linearGradient id="linear-gradient-2" x1="731.87" y1="579.63" x2="195.14" y2="42.9" gradientUnits="userSpaceOnUse">
      <stop offset="0" stop-color="#fff"/>
      <stop offset=".5" stop-color="#6d6a6b"/>
      <stop offset="1" stop-color="#000"/>
    </linearGradient>
    <linearGradient id="linear-gradient-3" x1="875.48" y1="199.13" x2="1010.64" y2="128.81" gradientUnits="userSpaceOnUse">
      <stop offset="0" stop-color="#000"/>
      <stop offset="1" stop-color="#e11f26"/>
    </linearGradient>
    <linearGradient id="linear-gradient-4" x1="402.96" y1="544.86" x2="254.2" y2="332.41" gradientUnits="userSpaceOnUse">
      <stop offset="0" stop-color="#acaaab" stop-opacity=".6"/>
      <stop offset="1" stop-color="#4ea9d1"/>
    </linearGradient>
  </defs>
  <g class="cls-9">
    <g id="Layer_2" data-name="Layer 2">
      <g id="Layer_1-2" data-name="Layer 1">
        <g class="cls-15">
          <g>
            <path class="cls-14" d="M376.14,921.34c7.25,3.58,141.92,97.39,144.2,95.45,2.28-1.95,108.15,19.81,112.5,16.91,4.35-2.9,44.81-2.9,44.88-10.15.07-7.25-2.67-45.89-2.67-45.89l-15.66-89.5-.7-67.34,29.96-71.3v-56.62l-48.08-11.6-91.07,26.1-111.14,42.12-13.7,12.65s27.47,43.08,27.39,103.13c-48.37,56.82-75.91,56.05-75.91,56.05Z"/>
            <path class="cls-13" d="M275.94,577.41c21.17-2.9,42.34-5.8,66.27-9.08-11.51-6.4-19.61-10.9-28.08-15.6,2.48-.88,4.47-1.59,7.26-2.58-3.86-1.51-7.09-2.77-13.4-5.24,8.2-.66,13.02-1.05,20.38-1.64-3.83-2.71-5.65-5.02-6.96-4.77-10.84,2.12-22.45-11.12-33.43,3.42-4.08,5.41-16.86,3.41-23.31,8.07-9.29,6.7-16.84,16.03-24.24,24.98-2.71,3.28-5.28,10.42-3.63,12.69,2.42,3.33,8.9,5.78,13.28,5.28,22.17-2.54,44.34-5.51,66.25-9.67,10.4-1.97,20.24-6.92,30.34-10.53-.26-.61-.52-1.23-.77-1.84"/>
            <path class="cls-2" d="M541.61,108.6s-16.59,41.51,12.78,64.08c-3.26,10.15-5.98,25.29,3.54,61.18,7.12,26.86,35.17,48.4,48.95,52.75,0,0,.31,13.29,7.61,17.77-7.98,1.45-17.77,6.16-17.77,6.16l-19.77,6.83-37.54,4.25-25.71-2.37-33.36-34.08-28.28-55.11s-1.45-46.77,0-47.5,33.72-32.99,33.72-32.99l55.84-40.97"/>
            <path class="cls-6" d="M557.78,98.68l-71.28,50.53-36.26,37.71s12.33,68.89,9.43,66.71c-2.9-2.18,18.85,29.73,18.85,29.73,0,0,26.83,35.2,29.73,36.09s22.67,2.01,22.21,2.18,19.67,2.7,31.45-2.18c14.91-3.05,27.42-5.77,27.96-6.32.54-.54,7.07-5.08,8.43-5.12,1.36-.04,12.92-3.31,12.92-3.31l9.38-.95s7.89,2.04,8.43,2.04,16.18,6.12,16.18,4.89-20.39-20.53-15.26-33.84c-1.81-1.85-46.2-47.2-46.2-47.2l-8.7-26.65s1.95-32.16.95-32.49c-.99-.34,1.02-8.76,1.02-8.76,0,0-25.11-42.32,6.04-70.55,18.01-16.32-25.29,7.48-25.29,7.48Z"/>
            <path class="cls-5" d="M501.68,137.9s-11.55,33.33,17.82,55.9c-3.26,10.15-9.52,18.85,0,54.75,7.12,26.86,38.82,43.15,52.6,47.5,0,0,3.67,14.74,10.97,19.22-7.98,1.45-21.15,4.18-21.15,4.18l-14.19,1.24-8.32.94-25.71-2.37-33.36-34.08-28.28-55.11s-1.45-46.77,0-47.5,33.72-32.99,33.72-32.99l55.84-40.97"/>
            <path class="cls-4" d="M939.71,276.54c1.03-.55,58-36.79,58.85-37.79,22.21-25.9-90.43,5.78-66.1-17.96,27.33-26.68,53.63-73.51,76.86-102.33,2.72-3.37-3.76-16.91,0-19.79-3.68-2.41-49.02-29.87-52.96-30.4-19.87-2.69-39.92-4.09-59.82-6.62-86.98-11.06-174.02-18.22-261.88-11.43-93,7.19-183.23,25.02-268.17,64.73-93.78,43.84-171.41,106.19-220.08,199.52-54.57,104.66-67.09,214.83-36.9,329,13.56,51.29,35.25,99.25,69.46,140.66,4.55,5.5,9.75,10.46,14.66,15.67-10.09-44.59-20.16-87.85-11.28-132.92,1.41,3.72,2.28,7.52,2.4,11.35,2.51,80.67,36.9,144.25,103.43,189.65,28.48,19.44,59.42,34.39,95.12,34.87,26.44.36,46.3-13.78,55.3-38.59,11.42-31.48,1.71-80.26-43.35-93.55-32.59-9.61-54.81-31.99-66.23-64.36-3.55-10.04-6.62-20.25-10.11-30.96-28.14,32.5-31.53,81.88-9.25,124.22,5.61,10.66,11.25,21.31,16.87,31.96-1.5,1.07-3,2.15-4.51,3.22-13.75-17.24-29.04-33.49-40.9-51.94-20.95-32.61-23.5-68.08-5.02-102.41,11.95-22.2,27.43-42.64,42.54-62.96,7.32-9.84,17.43-17.59,27.67-27.64-3.95-.09-6.12-.64-7.99-.11-13.89,3.95-27.47,9.79-41.62,11.82-19.28,2.77-39.08,4.5-58.43,3.23-14.66-.97-20.52-14.59-11.16-24.6,15.73-16.83,32.84-32.78,51.4-46.34,7.23-5.28,20.23-5.15,30.1-3.81,19.29,2.61,38.22,7.81,57.56,12-.36,2.67-1.82,6.04-.95,8.62,2.02,5.99,4.25,12.46,8.38,16.88,1.31,1.41,9.27-2.37,13.51-4.91,12.03-7.21,24.04-14.55,35.36-22.79,4.02-2.93,7.37-8.22,8.76-13.08,7.09-24.8,13.45-49.81,20.05-74.75,5.63-21.29,18.91-34.46,40.12-41.25,19.68-6.3,38.67-14.76,58.19-22.35-27.53-32.62-54.19-63.94-80.5-95.55-6.42-7.72-12.56-15.92-17.3-24.73-15.22-28.27-265.5-82.75-247.96-112.47,25.85-43.81-221.75,79.31-177.79,59.57-3.87,4.89,179.69,380.51,175.06,384.41-22.79,19.18,124.18,1.61,102.27,21.75-15.49,14.24,123.44-84.22,130.06-63.81,6.55,20.22,110.1-100.41,121.05-82.29,23.15,38.31,55.25-35.14,98.7-46.78,4.65-1.25,76.52-42.77,80.6-45.16,16.94-9.92,59.97-45.15,77.21-35.41"/>
            <path class="cls-11" d="M939.71,276.54c1.03-.55,58-36.79,58.85-37.79,22.21-25.9-90.43,5.78-66.1-17.96,27.33-26.68,53.63-73.51,76.86-102.33,2.72-3.37-3.76-16.91,0-19.79-3.68-2.41-49.02-29.87-52.96-30.4-19.87-2.69-39.92-4.09-59.82-6.62-86.98-11.06-174.02-18.22-261.88-11.43-93,7.19-183.23,25.02-268.17,64.73-93.78,43.84-171.41,106.19-220.08,199.52-54.57,104.66-67.09,214.83-36.9,329,13.56,51.29,35.25,99.25,69.46,140.66,4.55,5.5,9.75,10.46,14.66,15.67-10.09-44.59-20.16-87.85-11.28-132.92,1.41,3.72,2.28,7.52,2.4,11.35,2.51,80.67,36.9,144.25,103.43,189.65,28.48,19.44,59.42,34.39,95.12,34.87,26.44.36,46.3-13.78,55.3-38.59,11.42-31.48,1.71-80.26-43.35-93.55-32.59-9.61-54.81-31.99-66.23-64.36-3.55-10.04-6.62-20.25-10.11-30.96-28.14,32.5-31.53,81.88-9.25,124.22,5.61,10.66,11.25,21.31,16.87,31.96-1.5,1.07-3,2.15-4.51,3.22-13.75-17.24-29.04-33.49-40.9-51.94-20.95-32.61-23.5-68.08-5.02-102.41,11.95-22.2,27.43-42.64,42.54-62.96,7.32-9.84,17.43-17.59,27.67-27.64-3.95-.09-6.12-.64-7.99-.11-13.89,3.95-27.47,9.79-41.62,11.82-19.28,2.77-39.08,4.5-58.43,3.23-14.66-.97-20.52-14.59-11.16-24.6,15.73-16.83,32.84-32.78,51.4-46.34,7.23-5.28,20.23-5.15,30.1-3.81,19.29,2.61,38.22,7.81,57.56,12-.36,2.67-1.82,6.04-.95,8.62,2.02,5.99,4.25,12.46,8.38,16.88,1.31,1.41,9.27-2.37,13.51-4.91,12.03-7.21,24.04-14.55,35.36-22.79,4.02-2.93,7.37-8.22,8.76-13.08,7.09-24.8,13.45-49.81,20.05-74.75,5.63-21.29,18.91-34.46,40.12-41.25,19.68-6.3,38.67-14.76,58.19-22.35-27.53-32.62-54.19-63.94-80.5-95.55-6.42-7.72-12.56-15.92-17.3-24.73-15.22-28.27-265.5-82.75-247.96-112.47,25.85-43.81-221.75,79.31-177.79,59.57-3.87,4.89,179.69,380.51,175.06,384.41-22.79,19.18,124.18,1.61,102.27,21.75-15.49,14.24,123.44-84.22,130.06-63.81,6.55,20.22,110.1-100.41,121.05-82.29,23.15,38.31,55.25-35.14,98.7-46.78,4.65-1.25,76.52-42.77,80.6-45.16,16.94-9.92,59.97-45.15,77.21-35.41"/>
            <g>
              <path d="M615.52,472.77c-61.86,34.88-121.98,68.78-182.83,103.08.78,2.33,1.11,4.98,2.43,6.97,14.95,22.57,9.55,43.2-5.5,63.16-8.68,11.51-17.91,11.18-23.46-2.39-3.75-9.15-4.74-19.47-6.62-29.33-.86-4.54-.9-9.23-1.49-15.88-26.44,16.2-46.38,36.36-65.49,57.36-1.95,2.14-1.12,7.52-.49,11.21,10.4,59.99,57.66,90.44,116.38,72.34,29.57-9.12,57.55-23.43,86.16-35.59,33.98-14.44,68-28.7,105.36-31.78,6.95-.57,14.06-.54,20.98.24,25.35,2.85,40.95,20.62,41.7,46.06.93,31.5-6.24,61.99-20.55,88.94-16.92,31.85-13.41,61.53-6.16,94.59,8.71,39.69,13.02,80.57,16.18,121.18,2.74,35.26-21.97,54.07-56.79,50.61-82.15-8.16-151.35-45.43-216.12-93.15-37.51-27.63-75.89-53.33-117.97-74.04-53.8-26.47-103.69-59.31-143.23-105.68-42.4-49.72-68.74-107.46-86.9-169.69-20.96-71.86-22.31-145.34-20.87-219.27,1.14-58.2-.95-116.06-27.27-169.89-4.39-8.99-9.76-17.5-14.99-26.8,31.7-28.13,68.03-48.11,106.84-63.8,36.39-14.71,74.15-24.1,113.13-29.41,14.91-2.03,30.34-6.21,43.64-13.06,78.22-40.29,160.77-66.79,246.71-85.27,122.24-26.28,244.19-18.89,366.49-3.35,21.31,2.71,42.63,5.39,63.89,8.49,8.66,1.26,17.23,3.32,25.72,5.48,59.9,15.24,60.54,68.02,33.84,101.96-9.45,12.01-21.23,22.16-31.61,33.47-7.29,7.94-14.02,16.41-23.21,27.25,30.89,3.58,56.45-.48,80.69-13.03,5.84-3.02,11.36-6.88,17.49-9.07,15.25-5.46,22.27,1.47,19.92,17.42-3.81,25.87-18.07,45.44-38.99,58.51-48.58,30.34-95.77,63.46-150.9,82.02-11.9,4.01-23.31,10.15-34.07,16.74-42.27,25.85-87.12,44.86-135.51,56.13-9.97,2.32-18.98,10.37-27.3,17.16-2.32,1.89-1.5,8.97-.53,13.32,8.66,38.86-7.06,73.37-42.86,93.25-13.92,7.73-27.38-2.49-27.35-21.22.02-11.24.91-22.48,1.48-35.2ZM689.49,358.91c-9.65,7.73-19.31,15.46-30.12,24.12,38.16,2.56,60.54-19.8,81.8-44.56-6.65.34-12.71,2.02-18.35,4.6-11.32,5.17-37.11,19.08-48.3,24.53,3.98-3.17,31.75-21.86,40.81-29.08-9.33-5.24-85.84,23.53-110.91,41.23,12.66-.4,22.54,1.16,31.21-1.38,18.3-5.36,35.96-12.87,53.87-19.46ZM621.52,775.9c3.05-.3,25.94-1.12,28.99-1.1,6.11.05,10.7-.7,12.44-8.3,1.69-7.37-.15-11.72-6.79-14.53,7.1.3,9.62-2.5,11.65-10.06,3-11.16-7.3-9.13-10.37-13.84l-.18.28c3.66-.74,7.32-1.48,10.86-2.2,2.01-12.94-1.65-19.59-15.18-18.25-10,.99-20.12.73-30.11,1.79-67.09,7.08-125.32,41-189.4,61.38,5,6.33,8.91,11.28,12.72,16.09,6.78-2.93,12.17-5.27,20.51-8.87-7.16,6.36-11.81,10.49-16.45,14.62,7.95-.22,14.38-2.66,20.62-5.51,36.09-16.53,73.67-28.74,113.03-33.37,23.99-2.82,48.49-1.36,72.83-1.79-2.57.52,14.93,1.32-7.69,1.49-65.91-2.83-127.34,14.32-186.44,41.77-3.62,1.68-6.67,4.6-9.98,6.94-.22,2.08.47,2.71,1.81,2.78,1.94-.57,3.94-1,5.82-1.74,44.55-17.6,91.3-25.14,138.63-29.18,14.17-1.21,28.63.98,42.99,1.62-8.25.41,19.7.54,11.44.7-52.16,1.02-138.36,13.83-187.67,29.56-3.85,1.23-6.96,4.75-10.42,7.2-.77,1.73.69,2.74,2.07,3.18,2.96-.41,5.93-.72,8.88-1.23,29.29-5.06,58.4-11.93,87.91-14.73,29.53-2.81,59.45-2.16,89.18-1.79,11.08.14,12.17-6.73,13.26-13.86,1.31-8.55-5.52-6.78-10.59-7.11-1.55-.1-22.85-1.17-24.36-1.93ZM645.87,901.33c-45.07-4.26-149.96-14.49-195.03-18.75-3.94,2.06-3.26,2.57-1.28,7.18,64.16,16.96,128.81,30.91,196.04,29.72,2.75-11.91.16-17.44-11.36-18.32-14.67-1.11-20.66-2.33-43.92-5.68,17.12-.3,34.23-.6,51.08-.9,1.5-12.4-2.41-17.66-14.08-18.3-52.3-2.88-104.57-6.49-156.86-9.56-5.02-.3-14.31-2.8-14.83,1.63l-.52,5.09c1.14,3.51,8.6,2.73,13,3.37,28.6,4.15,157.76,15.24,186.35,19.49,10.55,1.57,7.49,4.4-3.42,4.87l-5.17.16ZM712.7,288.57c63.93,6.6,127.09,3.06,188.52-16.8,22.75-7.35,44.54-17.72,66.76-26.71-.5-1.23-.99-2.47-1.49-3.7-25.18-.41-50.37-.38-75.53-1.33-35.53-1.33-71.17-2.98-105.76,6.78-13.67,3.86-25.32,7.23-33.42-7.93-19.03,15.3-36.99,29.74-55.14,44.34,1.95,1.37,3.71,2.61,5.47,3.85-9.14-.63-18.46-2.74-27.39-1.66-72.52,8.77-116.63-54.8-97.7-123.68.29,6.68.74,10.05.53,13.37-2.36,37.89,24.6,77.06,61.02,87.2,37.15,10.34,68.57-1.17,94.44-28.24,24.55-25.69,47.92-52.51,72.18-78.49,5.21-5.58,12.04-9.65,18.12-14.42.02,4.82-1.93,7.14-3.85,9.48-16.13,19.7-32.38,39.31-48.33,59.16-5.56,6.92-9.28,16.14-.76,21.6,3.09,1.98,12.41-5.62,18.79-9.03,1.03-.55,1.45-2.17,2.3-3.16,22.21-25.9,42.79-53.48,67.12-77.22,27.33-26.68,58.46-49.08,96.98-58.38,4.21-1.02,7.59-5.51,11.35-8.4-3.68-2.41-7.15-6.43-11.09-6.97-19.87-2.69-39.92-4.09-59.82-6.62-86.98-11.06-174.02-18.22-261.88-11.43-93,7.19-183.23,25.02-268.17,64.73-93.78,43.84-171.41,106.19-220.08,199.52-54.57,104.66-67.09,214.83-36.9,329,13.56,51.29,35.25,99.25,69.46,140.66,4.55,5.5,9.75,10.46,14.66,15.67-10.09-44.59-20.16-87.85-11.28-132.92,1.41,3.72,2.28,7.52,2.4,11.35,2.51,80.67,36.9,144.25,103.43,189.65,28.48,19.44,59.42,34.39,95.12,34.87,26.44.36,46.3-13.78,55.3-38.59,11.42-31.48,1.71-80.26-43.35-93.55-32.59-9.61-54.81-31.99-66.23-64.36-3.55-10.04-6.62-20.25-10.11-30.96-28.14,32.5-31.53,81.88-9.25,124.22,5.61,10.66,11.25,21.31,16.87,31.96-1.5,1.07-3,2.15-4.51,3.22-13.75-17.24-29.04-33.49-40.9-51.94-20.95-32.61-23.5-68.08-5.02-102.41,11.95-22.2,27.43-42.64,42.54-62.96,7.32-9.84,17.43-17.59,27.67-27.64-3.95-.09-6.12-.64-7.99-.11-13.89,3.95-27.47,9.79-41.62,11.82-19.28,2.77-39.08,4.5-58.43,3.23-14.66-.97-20.52-14.59-11.16-24.6,15.73-16.83,32.84-32.78,51.4-46.34,7.23-5.28,20.23-5.15,30.1-3.81,19.29,2.61,38.22,7.81,57.56,12-.36,2.67-1.82,6.04-.95,8.62,2.02,5.99,4.25,12.46,8.38,16.88,1.31,1.41,9.27-2.37,13.51-4.91,12.03-7.21,24.04-14.55,35.36-22.79,4.02-2.93,7.37-8.22,8.76-13.08,7.09-24.8,13.45-49.81,20.05-74.75,5.63-21.29,18.91-34.46,40.12-41.25,19.68-6.3,38.67-14.76,58.19-22.35-27.53-32.62-54.19-63.94-80.5-95.55-6.42-7.72-12.56-15.92-17.3-24.73-15.22-28.27-22.32-57.76-4.79-87.49,25.85-43.81,92.64-74.18,136.59-93.92-3.87,4.89-31.91,18.37-36.54,22.27-22.79,19.18-46.18,37.71-68.09,57.85-15.49,14.24-22.44,33.57-15.82,53.98,6.55,20.22,14.73,40.46,25.68,58.58,23.15,38.31,45.6,45.98,89.05,34.33,4.65-1.25,9.59-2.3,13.67-4.69,16.94-9.92,33.67-10.53,50.9-.79,3.73,2.11,8.26,2.93,12.52,3.95,67.28,16,134.75,16.19,202.26,1.73,11.8-2.53,23.29-6.49,34.92-9.79-4.94-3.5-9.44-4.21-13.95-4.29-40.69-.72-64.78-.69-105.43-2.45-15.62-1.55-45.41-5.78-59.55-8.72ZM978.65,123.77c3.5-7.75-.59-12.61-8.22-11.6-8.01,1.07-16.23,3.6-23.39,7.34-28.98,15.14-53.88,35.72-75.49,60.15-9.01,10.19-16.94,21.34-25.36,32.06.9,1.21,1.8,2.42,2.7,3.63,36.96-2.02,34.83-1.91,71.79-3.93,12.25-1.68,20.53-4.19,25.34-6.62,1.66-1.13,5.5-2.85-.03-4.17,13.56-18.01,26.97-35.57,40.09-53.35,4.14-5.61,8.33-11.46,10.88-17.84,1.27-3.17,3.66-8.77-2.06-12.74-9.91,12.59-17.95,22.81-25.99,33.04M534.02,427.88c.76-1.83,1.52-3.66,2.38-5.74-3.29.69-17.39,7.84-20.66,8.53,1.96-3.12,14.59-11.99,17.55-16.68-7.64,2.91-23.07,12.05-31.28,15.18,6.54-5.42,20.72-15.75,24.43-18.83l-2.16-3.71-58.05,27.44c.04.57.04.6.87,1.09l10.35,3.21c-11.89,4.96-19.35,10.91-19.43,24.31-.05,7.91-3.2,17.01-7.9,23.41-6.94,9.45.9,21.68-7.94,30.57-2.09,2.1-.68,10.31,1.84,13.66,2.72,3.61,9.16,7.3,13.04,6.49,6.51-1.36,13.13-5.32,18.21-9.85,21.91-19.54,43.92-39.03,64.57-59.86,11.05-11.15,19.42-24.96,28.99-37.57-.91-.76-1.83-1.53-2.74-2.29-20.54,20.24-41.09,40.48-61.63,60.71-.62-.7-1.24-1.39-1.86-2.09,19.3-20.7,38.6-41.41,57.9-62.11l-3.17-3.02c-3.29,2.1-16.93,9.88-21.85,13.03,2.38-5.06,14.19-13.82,17.17-20.14M406.73,930.26c-.74,1.98-1.13,2.58-1.22,5.83.83,6.05,30.05,22.55,45.94,33.23,55.78,37.5,116.89,57.62,184.6,55.46,21.57-.69,23.84-4.24,17.39-25.68-12.56.09-25.2.44-37.84.24-70.86-1.14-135.43-20.92-192.21-64.37-4.26-3.26-14.79-7.16-16.66-4.71ZM275.94,577.41c21.17-2.9,42.34-5.8,66.27-9.08-11.51-6.4-19.61-10.9-28.08-15.6,2.48-.88,4.47-1.59,7.26-2.58-3.86-1.51-7.09-2.77-13.4-5.24,8.2-.66,13.02-1.05,20.38-1.64-3.83-2.71-5.65-5.02-6.96-4.77-10.84,2.12-22.45-11.12-33.43,3.42-4.08,5.41-16.86,3.41-23.31,8.07-9.29,6.7-16.84,16.03-24.24,24.98-2.71,3.28-5.28,10.42-3.63,12.69,2.42,3.33,8.9,5.78,13.28,5.28,22.17-2.54,44.34-5.51,66.25-9.67,10.4-1.97,20.24-6.92,30.34-10.53-.26-.61-.52-1.23-.77-1.84M425.77,920.75c-2.98,3.91.87,5.77,1.38,6.24,2.25,2.07,4.51,4.19,7.05,5.87,47.21,31.2,98.27,52.37,155.04,57.36,18.69,1.64,37.64.99,56.42.23,3.37-.14,6.51-5.95,9.76-9.14-3.43-2.18-6.74-5.96-10.31-6.24-8.69-.68-17.5.61-26.26.51-63.97-.71-123.31-18.77-179.56-48.27-3.64-1.91-7.39-3.6-13.52-6.56ZM652.08,951.86c-25.9-1.48-50.46-1.58-74.65-4.64-24.18-3.06-48.19-8.21-71.87-14.08-23.07-5.73-45.63-13.54-68.41-20.43,41.68,36.93,171.76,66.41,216.61,51.42-.56-4.07-1.13-8.24-1.68-12.26ZM650.49,941.26c.88-9.33-1.46-15.61-11.65-15.4-59.98,1.21-118.09-10.41-175.75-25.32-5.91-1.53-14.6-3.47-20.33-2.69,16.67,23.68,166.75,53.76,207.73,43.41ZM456.63,825.25c.58,4.22,3.89,3.24,4.97,3.37,2.58.31,5.29.52,7.83.1,52.67-8.76,105.71-8.31,158.78-5.98,13.87.61,17.97-6.44,19.3-19.25-1.37-4.84-175.2,8.32-190.88,21.76ZM46.96,238.76c45.45-41.44,98.12-67.83,156.87-83.21-5.06-1.88-9.29-1.84-13.45-1.28-50.65,6.87-97.05,25.26-140.18,52.26-17.27,10.81-17.57,13.68-3.24,32.23ZM456.47,843.01c2.93,2.47,12.84.9,17.95.97,46.41.63,92.85.51,139.23,2.18,13.84.5,18.4-5.93,21.94-16.64,3.34-8.58-176.27,2.08-179.12,13.5ZM635.02,871.96c1.56-16.72-4.7-20.87-17.56-20.73-27.06.29-54.14-1.04-81.22-1.24-22.29-.17-44.58.12-66.86.71-4.31.11-13.15,1.73-12.85,3.92.3,1.42-.47,2.54.89,4.26,58.97,4.34,117.93,8.68,177.6,13.07ZM175.07,182.22c-.37-1.06-.75-2.11-1.12-3.17-9.01,2.69-18.14,5.04-27,8.14-31.65,11.06-61.13,26.11-86.49,48.41-11.52,10.13-12.07,15.07-2.62,26.94,31.79-37.43,73.11-60.96,117.23-80.32ZM683.72,329.24c-40.19.47-71.03,32.84-111.62,31.94,21.12,15.09,91.73-4.75,111.62-31.94ZM544.56,338.77c7.5,13.62,18.1,16.63,39.33,13.51,32.21-4.74,66.14-20.39,69.28-34.9-36.41,8.97-68.62,32.48-108.61,21.39ZM570.78,460.76c.77.91,1.55,1.82,2.32,2.73,22.03-16.13,44.06-32.26,68.67-50.29-16.81-3.17-31.08-9.18-41.35,3.33-11.2,13.65-19.87,29.39-29.64,44.22ZM630.77,314.66c-9.71-9.85-19.46-6.82-28.51-3.18-19.4,7.8-27.82,11.62-60.95,13.35-1.91.1-3.62,1.33-5.94,2.21,15.98,14.87,61.83,8.82,95.4-12.37ZM61.69,291.43c28.86-27.33,53.44-55.3,77.6-78.19,1.73.4,16.36-9.73,15.8-9.52-30.14,11.44-69.51,41.18-90.39,65-3.02,3.44-1.57,14.44-3.02,22.7ZM73.04,319.07c1.13.13,2.25.25,3.38.38,6.78-11.66,13.3-23.49,20.41-34.95,10.46-16.87,22.13-32.99,32.49-49.91-.85-.6-.51-.36-1.36-.95-18.09,22.46-38.12,43.45-55.44,66.49-2.97,3.95.18,12.51.52,18.94ZM719.31,375.99c20.11-2.89,43.87-21.09,48.47-37.12-14.59.99-31.84,14.21-48.47,37.12ZM797.49,335.42c-18.72-.42-27.1,21.06-38.01,31.64,1.02,1.62-1.02-1.62,0,0"/>
              <path d="M777.01,118.47c21.09-25.98,14.17-32.16-5.92-45.36,14.6-2.15,25.15,3.6,35.48,12.41,5.87,5,6.96,12.98-3.51,22.22-3.23,2.85-7.79,3.84-11.8,5.5-3.93,1.62-7.99,2.95-14.26,5.24Z"/>
              <path d="M765.52,110.75c-9.77-2.64-16.21-9.97-10.88-19.73,3.29-6.02,10.9-4.73,13.54-2.8,9.63,9.06,7.26,17.22-2.67,22.53Z"/>
              <path d="M670.12,729.38c-18.61,1.81-50.11,1.11-68.46,4.4-25.59,4.59-50.81,11.18-76.28,16.46,40.73-14.14,81.34-28.89,125.86-23.88,2.05.23,3.29-.65,5.3.03,10.87-2.21,13.58,2.99,13.58,2.99Z"/>
            </g>
            <path class="cls-10" d="M978.65,123.77c3.5-7.75-.59-12.61-8.22-11.6-8.01,1.07-16.23,3.6-23.39,7.34-28.98,15.14-53.88,35.72-75.49,60.15-9.01,10.19-16.94,21.34-25.36,32.06.9,1.21,1.8,2.42,2.7,3.63,36.96-2.02,34.83-1.91,71.79-3.93,12.25-1.68,20.53-4.19,25.34-6.62,1.66-1.13,5.5-2.85-.03-4.17,13.56-18.01,26.97-35.57,40.09-53.35,4.14-5.61,8.33-11.46,10.88-17.84,1.27-3.17,3.66-8.77-2.06-12.74-9.91,12.59-17.95,22.81-25.99,33.04"/>
            <g class="cls-1">
              <path class="cls-3" d="M546.74,81.52c-155.73,39.48-307.31,136.46-373.9,287.24-2.42,5.2-5.03,11.92-7.3,17.21-4.01,10.1-8.08,21.94-11.43,32.33-1.86,6.66-4.3,14.31-5.89,21.03-2.86,11.14-6.08,25.29-7.98,36.6-2.98,15.88-4.96,33.49-6.46,49.6-.19,3.37-1.04,15.29-1.25,18.75-.23,5.1-.41,13.81-.6,18.79-.55,37.68,2.08,75.32,7.19,112.76-7.28-37.06-11.34-74.91-12-112.77-.29-29.3,1.48-59.38,6.18-88.3.96-7.07,3.17-17.84,4.52-24.96,0,0,2.9-12.36,2.9-12.36,1.53-6.85,3.91-14.67,5.72-21.47,3.29-10.65,7.26-22.73,11.22-33.08,1.77-4.28,4.16-10.49,5.95-14.73.86-1.91,5.59-12.36,6.54-14.48,46.99-100.3,134.26-177.21,233.27-224.34,45.57-21.62,93.61-38.75,143.29-47.83h0Z"/>
            </g>
            <g class="cls-1">
              <path class="cls-12" d="M154.41,629.25c-.22-11.81.75-24.26,1.84-36.06,11.92-111.4,59.68-217.08,128.41-305.02,5.69-7.09,11.62-13.99,17.48-20.94,5.9-6.5,12.55-13.53,18.62-19.93,4.41-4.53,14.96-14.45,19.59-18.95,6.15-5.76,14.12-12.36,20.49-17.94,6.82-5.91,14.16-11.41,21.26-16.97,8.37-6.75,20.59-14.86,29.43-21.09,4.88-3.36,10.26-6.56,15.28-9.68,5.14-3.15,10.28-6.29,15.46-9.33,0,0,.79,1.16.79,1.16-6.87,5.85-13.8,11.55-20.81,17.21-8.05,6.48-19.3,16.68-27.26,23.29-7.72,7.01-15.36,14.12-23.12,21.08-7.02,7.01-15.36,14.8-22.31,21.84-4.45,4.67-14.28,14.75-18.55,19.23-3.7,4.15-14.07,15.49-17.97,19.75-7.54,8.92-15.78,17.92-23.04,27.12-45.71,54.82-80.95,118.19-104.79,185.45-13.88,39.35-23.9,80.32-28.2,121.9-.57,5.95-1.05,11.93-1.21,17.88,0,0-1.4.02-1.4.02h0Z"/>
            </g>
            <path class="cls-8" d="M428.85,210.12s-217.88,177.28-239.66,401.18c0,0,23.93-49.49,89.48-84.71,13.98-7.51,26.34-4.35,49.14-2,13.35,1.38,43.39,3.21,43.39,17.64,0,9.79,3.06,15.95,6.16,14.68,13.27-5.43,30.63-17.42,44.05-25.02,13.78-7.8,23.88-98.51,38.07-107.68,20.67-13.37,39.7-19.39,85.07-37.16-28.05-28.7-39.56-46.77-64.68-72.01-59.57-59.87-51.03-104.92-51.03-104.92Z"/>
          </g>
        </g>
      </g>
    </g>
  </g>
</svg>