<?xml version="1.0" encoding="UTF-8"?>
<svg xmlns="http://www.w3.org/2000/svg" version="1.1" viewBox="0 0 1080 1080">
  <defs>
    <style>
      .cls-1 {
        fill: #fff;
        fill-rule: evenodd;
      }
    </style>
  </defs>
  <!-- Generator: Adobe Illustrator 28.6.0, SVG Export Plug-In . SVG Version: 1.2.0 Build 709)  -->
  <g>
    <g id="Layer_1">
      <g id="black">
        <g>
          <path class="cls-1" d="M738.9,331.9h0Z"/>
          <path class="cls-1" d="M540,0C241.8,0,0,241.8,0,540s241.8,540,540,540,540-241.8,540-540S838.2,0,540,0ZM771.2,416.4c.2,5.4.3,10.8.3,16.2,0,165.7-120,356.6-339.5,356.6s-130.1-21.1-182.9-57.3c9.3,1.2,18.8,1.8,28.5,1.8,55.9,0,107.3-20.1,148.2-54-52.2-1.2-96.3-38.2-111.5-88.8,7.3,1.5,14.8,2.4,22.5,2.4,10.9,0,21.4-1.4,31.4-4.2-54.6-12.1-95.7-63.9-95.7-125.6s0-1.1,0-1.6c16.1,9.7,34.5,15.6,54,16.5-32-23.2-53.1-62.4-53.1-106.6s5.9-45.1,16.2-63.8c58.8,77.8,146.8,129.5,245.9,135.9-2-9.3-3.1-18.9-3.1-28.8,0-69.8,53.4-125.5,119.3-124.3,34.3.6,65.3,16.3,87.1,41.1,27.2-5.2,52.7-15.2,75.8-29.2-8.9,29.1-27.8,53.3-52.5,68.5,24.1-2.7,47.1-9.1,68.5-18.7-16,24.9-36.2,46.6-59.5,64h.1Z"/>
        </g>
      </g>
    </g>
  </g>
</svg>