<?xml version="1.0" encoding="UTF-8"?>
<svg id="Layer_1" data-name="Layer 1" xmlns="http://www.w3.org/2000/svg" viewBox="0 0 1080 1080">
  <defs>
    <style>
      .cls-1 {
        fill: #fff;
      }

      .cls-1, .cls-2 {
        fill-rule: evenodd;
        stroke-width: 0px;
      }

      .cls-2 {
        fill: #000;
      }
    </style>
  </defs>
  <g id="black">
    <g id="twitter">
      <path id="Twitter" class="cls-2" d="M540,1080c298.23,0,540-241.77,540-540S838.23,0,540,0,0,241.77,0,540s241.77,540,540,540Z"/>
      <path class="cls-1" d="M738.94,331.86c-21.76-24.74-52.77-40.5-87.09-41.08-65.89-1.1-119.31,54.58-119.31,124.35,0,9.9,1.06,19.56,3.09,28.83-99.16-6.43-187.07-58.07-245.92-135.9-10.27,18.65-16.16,40.45-16.16,63.8,0,44.21,21.06,83.44,53.08,106.6-19.56-.86-37.95-6.78-54.04-16.5-.01.53-.01,1.06-.01,1.6,0,61.73,41.13,113.52,95.71,125.59-10.01,2.84-20.55,4.32-31.43,4.25-7.69-.05-15.16-.9-22.45-2.43,15.18,50.63,59.24,87.57,111.45,88.79-40.83,33.9-92.28,54.08-148.18,53.97-9.63-.02-19.13-.64-28.46-1.84,52.8,36.23,115.51,57.32,182.89,57.34,219.45.06,339.46-190.92,339.46-356.57,0-5.43-.12-10.84-.35-16.22,23.31-17.37,43.54-39.15,59.53-64.02-21.39,9.64-44.39,16.05-68.52,18.74,24.63-15.16,43.55-39.42,52.46-68.51-23.06,13.98-48.59,24.01-75.77,29.21Z"/>
    </g>
  </g>
</svg>