<?xml version="1.0" encoding="UTF-8"?>
<svg id="Layer_1" data-name="Layer 1" xmlns="http://www.w3.org/2000/svg" viewBox="0 0 1080 1080">
  <defs>
    <style>
      .cls-1 {
        fill: #000;
        stroke-width: 0px;
      }
    </style>
  </defs>
  <g id="OUTLINE_copy_2" data-name="OUTLINE copy 2">
    <g>
      <polygon class="cls-1" points="466.76 649.99 650.09 540 466.76 430.01 466.76 649.99"/>
      <path class="cls-1" d="M540,0C241.79,0,0,241.75,0,540s241.79,540,540,540,540-241.78,540-540S838.22,0,540,0ZM833.22,563.66c0,50.63-5.87,101.25-5.87,101.25,0,0-5.74,43.13-23.29,62.07-22.31,24.91-47.28,25.04-58.76,26.53-82.08,6.28-205.3,6.48-205.3,6.48,0,0-152.48-1.49-199.39-6.28-13.06-2.6-42.32-1.86-64.67-26.73-17.58-18.97-23.29-62.07-23.29-62.07,0,0-5.87-50.59-5.87-101.25v-47.45c0-50.63,5.87-101.22,5.87-101.22,0,0,5.74-43.13,23.29-62.13,22.31-24.94,47.28-25.08,58.76-26.49,82.05-6.34,205.17-6.34,205.17-6.34h.27s123.12,0,205.17,6.34c11.44,1.42,36.45,1.55,58.76,26.46,17.58,19,23.29,62.13,23.29,62.13,0,0,5.87,50.62,5.87,101.25v47.45Z"/>
    </g>
  </g>
</svg>