<?xml version="1.0" encoding="UTF-8"?>
<svg xmlns="http://www.w3.org/2000/svg" version="1.1" viewBox="0 0 1080 1080">
  <defs>
    <style>
      .cls-1 {
        fill: #fff;
      }
    </style>
  </defs>
  <!-- Generator: Adobe Illustrator 28.6.0, SVG Export Plug-In . SVG Version: 1.2.0 Build 709)  -->
  <g>
    <g id="Layer_1">
      <g id="OUTLINE_copy_2">
        <g>
          <polygon class="cls-1" points="466.8 650 650.1 540 466.8 430 466.8 650"/>
          <path class="cls-1" d="M540,0C241.8,0,0,241.8,0,540s241.8,540,540,540,540-241.8,540-540S838.2,0,540,0ZM833.2,563.7c0,50.6-5.9,101.2-5.9,101.2,0,0-5.7,43.1-23.3,62.1-22.3,24.9-47.3,25-58.8,26.5-82.1,6.3-205.3,6.5-205.3,6.5,0,0-152.5-1.5-199.4-6.3-13.1-2.6-42.3-1.9-64.7-26.7-17.6-19-23.3-62.1-23.3-62.1,0,0-5.9-50.6-5.9-101.2v-47.5c0-50.6,5.9-101.2,5.9-101.2,0,0,5.7-43.1,23.3-62.1,22.3-24.9,47.3-25.1,58.8-26.5,82-6.3,205.2-6.3,205.2-6.3h.3s123.1,0,205.2,6.3c11.4,1.4,36.5,1.5,58.8,26.5,17.6,19,23.3,62.1,23.3,62.1,0,0,5.9,50.6,5.9,101.2v47.5h0Z"/>
        </g>
      </g>
    </g>
  </g>
</svg>